<?xml version="1.0" encoding="UTF-8" standalone="no"?>
<svg
   xmlns:dc="http://purl.org/dc/elements/1.1/"
   xmlns:cc="http://creativecommons.org/ns#"
   xmlns:rdf="http://www.w3.org/1999/02/22-rdf-syntax-ns#"
   xmlns:svg="http://www.w3.org/2000/svg"
   xmlns="http://www.w3.org/2000/svg"
   xmlns:sodipodi="http://sodipodi.sourceforge.net/DTD/sodipodi-0.dtd"
   xmlns:inkscape="http://www.inkscape.org/namespaces/inkscape"
   version="1.1"
   id="svg10"
   width="128"
   height="128"
   viewBox="0 0 128 128"
   sodipodi:docname="radiotower.svg"
   inkscape:version="1.0.1 (3bc2e813f5, 2020-09-07)">
  <metadata
     id="metadata16">
    <rdf:RDF>
      <cc:Work
         rdf:about="">
        <dc:format>image/svg+xml</dc:format>
        <dc:type
           rdf:resource="http://purl.org/dc/dcmitype/StillImage" />
        <dc:title></dc:title>
      </cc:Work>
    </rdf:RDF>
  </metadata>
  <defs
     id="defs14" />
  <sodipodi:namedview
     pagecolor="#ffffff"
     bordercolor="#666666"
     borderopacity="1"
     objecttolerance="10"
     gridtolerance="10"
     guidetolerance="10"
     inkscape:pageopacity="0"
     inkscape:pageshadow="2"
     inkscape:window-width="1920"
     inkscape:window-height="1001"
     id="namedview12"
     showgrid="false"
     inkscape:snap-nodes="false"
     inkscape:snap-bbox="true"
     inkscape:snap-global="true"
     inkscape:zoom="3.1289063"
     inkscape:cx="48.433241"
     inkscape:cy="66.598823"
     inkscape:window-x="-9"
     inkscape:window-y="-9"
     inkscape:window-maximized="1"
     inkscape:current-layer="g18"
     inkscape:document-rotation="0" />
  <g
     inkscape:groupmode="layer"
     inkscape:label="Image"
     id="g18">
    <ellipse
       style="fill:#000000;fill-rule:evenodd"
       id="path26"
       cx="64.859612"
       cy="38.418587"
       rx="12.20355"
       ry="12.316546" />
    <rect
       style="fill:#000000;fill-rule:evenodd;stroke-width:0.4785"
       id="rect74"
       width="8.3413401"
       height="70.596603"
       x="73.642914"
       y="16.693861"
       transform="matrix(0.90958852,0.41551019,-0.39904124,0.91693298,0,0)" />
    <rect
       style="fill:#000000;fill-rule:evenodd;stroke-width:0.4785"
       id="rect74-7"
       width="8.3413401"
       height="70.596603"
       x="-44.771378"
       y="-139.31543"
       transform="matrix(-0.92086821,0.389874,-0.4064154,-0.91368842,0,0)" />
    <rect
       style="fill:#000000;fill-rule:evenodd;stroke-width:1.28756"
       id="rect91"
       width="23.229298"
       height="6.3475761"
       x="18.084131"
       y="90.105972"
       transform="matrix(0.90793708,-0.41910649,0.38989749,0.92085827,0,0)" />
    <rect
       style="fill:#000000;fill-rule:evenodd;stroke-width:1.2915"
       id="rect93"
       width="30.372742"
       height="7.5707216"
       x="53.354401"
       y="67.540192"
       transform="matrix(0.97844002,0.2065312,0,1,0,0)" />
    <rect
       style="fill:#000000;fill-rule:evenodd;stroke-width:1.22118"
       id="rect95"
       width="42.8568"
       height="6.5257406"
       x="43.9809"
       y="115.09065"
       transform="matrix(0.95250055,-0.30453687,0,1,0,0)" />
    <path
       style="fill:none;stroke:#000000;stroke-width:1px;stroke-linecap:butt;stroke-linejoin:miter;stroke-opacity:1"
       d="m 83.735331,19.17603 c 0,0 20.614229,15.181024 0.958801,38.831461"
       id="path124" />
    <path
       style="fill:none;stroke:#000000;stroke-width:1px;stroke-linecap:butt;stroke-linejoin:miter;stroke-opacity:1"
       d="m 78.142322,24.129838 c 0,0 14.222222,14.541822 0.1598,27.965043"
       id="path128" />
    <path
       style="fill:none;stroke:#000000;stroke-width:1.02631px;stroke-linecap:butt;stroke-linejoin:miter;stroke-opacity:1"
       d="m 78.285195,24.623516 c 0,0 2.220185,-6.357078 5.610381,-5.35481"
       id="path134" />
    <path
       style="fill:#000000;stroke:#000000;stroke-width:1.01798px;stroke-linecap:butt;stroke-linejoin:miter;stroke-opacity:1"
       d="m 78.47667,51.694081 c 0,0 -0.319071,9.123014 6.381393,6.1373"
       id="path136" />
    <path
       style="fill:none;stroke:#000000;stroke-width:1.00503px;stroke-linecap:butt;stroke-linejoin:miter;stroke-opacity:1"
       d="m 98.967943,12.911838 c 0,0 22.776367,28.620915 -0.801179,51.945834"
       id="path146" />
    <path
       style="fill:none;stroke:#000000;stroke-width:0.970055px;stroke-linecap:butt;stroke-linejoin:miter;stroke-opacity:1"
       d="m 99.237801,13.006308 c -8.858029,-2.139004 -6.510118,5.066063 -6.510118,5.066063 0,0 16.221937,21.952941 0,40.641085 0,0 -2.881527,9.794389 5.869779,5.966696"
       id="path148" />
    <path
       style="fill:#000000;stroke-width:0.112996"
       d="m 94.355409,65.017388 c -0.104937,-0.02769 -0.206633,-0.16162 -0.225992,-0.297631 -0.02649,-0.186104 -0.124417,-0.255932 -0.395772,-0.282205 -0.313953,-0.0304 -0.365088,-0.08153 -0.395485,-0.395485 -0.02687,-0.277526 -0.09487,-0.369075 -0.29524,-0.39748 -0.41406,-0.0587 -0.501415,-0.485504 -0.443424,-2.166513 0.05846,-1.694625 0.10514,-1.892154 0.459066,-1.942572 0.202123,-0.02879 0.255722,-0.130962 0.308127,-0.587341 0.04883,-0.425287 0.139481,-0.617893 0.393721,-0.836582 0.181655,-0.156251 0.383411,-0.390691 0.448348,-0.520974 0.06494,-0.130284 0.256411,-0.303214 0.425499,-0.384291 0.17205,-0.0825 0.307431,-0.240245 0.307431,-0.358227 0,-0.288666 1.218638,-2.036768 1.419873,-2.036768 0.09262,0 0.16225,-0.108953 0.162491,-0.254241 2.38e-4,-0.139832 0.101222,-0.419563 0.224421,-0.621625 1.314713,-2.156287 2.48018,-5.02292 3.112371,-7.65532 0.583616,-2.430153 0.717716,-3.816865 0.723736,-7.4843 0.005,-3.160377 -0.0727,-4.168799 -0.30424,-3.937291 -0.0957,0.09568 -0.333365,-1.165888 -0.424075,-2.250906 -0.12835,-1.535239 -0.168943,-1.725127 -0.38062,-1.780482 -0.240387,-0.06286 -0.579102,-1.157232 -0.579102,-1.871046 0,-0.328556 -0.04797,-0.47282 -0.157225,-0.47282 -0.235912,0 -0.556159,-0.86532 -0.62728,-1.694937 -0.05471,-0.638155 -0.0926,-0.734473 -0.288956,-0.734473 -0.269797,0 -0.48731,-0.480599 -0.499885,-1.104506 -0.0069,-0.340969 -0.06248,-0.447019 -0.277219,-0.528662 -0.291278,-0.110744 -0.522348,-0.625071 -0.522348,-1.162671 0,-0.236141 -0.0647,-0.349623 -0.22291,-0.390996 -0.139862,-0.03657 -0.440934,-0.464136 -0.808117,-1.147629 -0.321864,-0.599135 -1.035705,-1.766799 -1.586314,-2.594808 -0.579984,-0.872184 -1.046934,-1.704003 -1.11005,-1.977427 -0.242423,-1.050207 -0.06405,-2.291726 0.428674,-2.983695 0.127159,-0.178577 0.480727,-0.460497 0.785706,-0.626488 0.536545,-0.292024 0.617181,-0.302185 2.489008,-0.31364 2.028386,-0.01241 2.600252,0.09523 2.53616,0.477388 -0.01664,0.0992 0.04139,0.207857 0.128948,0.241457 0.413727,0.158762 2.988845,4.492427 4.383125,7.376365 2.32614,4.811368 4.27535,11.176319 4.27535,13.960658 0,0.622 0.054,0.978115 0.17664,1.16531 0.13879,0.211829 0.19096,0.755622 0.24351,2.538432 0.0669,2.268632 0.0669,2.268852 -0.17663,2.268852 -0.24201,0 -0.24352,0.0155 -0.24506,2.514158 -9e-4,1.382786 -0.0314,2.625687 -0.068,2.762002 -0.0435,0.162055 -0.17004,0.259839 -0.3657,0.28249 l -0.29923,0.03464 -0.0679,1.581942 c -0.0373,0.870068 -0.0755,1.594654 -0.0847,1.610191 -0.009,0.01554 -0.1639,0.02825 -0.3436,0.02825 -0.3985,0 -0.48366,0.249778 -0.45726,1.341319 0.0183,0.759054 -0.31007,1.822564 -0.56282,1.822564 -0.0615,0 -0.14756,0.190167 -0.19117,0.422592 -0.0761,0.405698 -0.48834,1.433455 -0.49346,1.230262 -10e-4,-0.05422 -0.0813,-0.03317 -0.17763,0.04678 -0.0963,0.07995 -0.1628,0.251431 -0.1477,0.381072 0.0332,0.28473 -0.24433,0.834887 -0.56955,1.129207 -0.13065,0.118243 -0.23756,0.300602 -0.23756,0.405243 0,0.285918 -1.15069,2.013701 -1.38127,2.073998 -0.11383,0.02977 -0.20067,0.157738 -0.20067,0.295718 0,0.214974 -0.88748,1.487963 -1.6922,2.427256 -0.984998,1.149726 -2.329623,2.587139 -2.563453,2.740351 -0.654434,0.428802 -2.856736,0.821697 -3.562358,0.635532 z"
       id="path150" />
    <path
       style="fill:#000000;stroke-width:0.112996"
       d="m 81.587683,55.065675 c -1.471363,-1.351776 -2.678849,-2.493607 -2.683304,-2.537402 -0.0045,-0.04379 0.165103,-0.112119 0.376796,-0.151834 0.327744,-0.06148 0.395619,-0.12936 0.457104,-0.457103 0.062,-0.33049 0.117538,-0.384896 0.392896,-0.384896 0.336208,0 0.451102,-0.196594 0.462258,-0.790971 0.0057,-0.301095 0.347913,-0.790971 0.552626,-0.790971 0.06772,0 0.123133,-0.05085 0.123133,-0.112996 0,-0.236168 0.02102,-0.287925 0.195058,-0.480232 0.09842,-0.108759 0.26733,-0.197743 0.375344,-0.197743 0.205685,0 0.333564,-0.215719 0.333564,-0.562687 0,-0.257561 0.527942,-1.200575 0.646565,-1.1549 0.04835,0.01862 0.120014,-0.108504 0.159254,-0.282489 0.09368,-0.415364 0.437355,-1.076415 0.637475,-1.22617 0.08736,-0.06537 0.144939,-0.192494 0.127954,-0.28249 -0.01698,-0.09 0.05601,-0.363546 0.16221,-0.607889 0.752938,-1.732332 1.285747,-4.959826 1.13916,-6.900469 -0.07486,-0.991019 -0.520062,-3.935432 -0.60653,-4.011353 -0.0697,-0.0612 -0.722022,-2.01789 -0.734576,-2.203419 -0.0042,-0.06215 -0.345249,-0.802179 -0.757875,-1.644513 -0.80683,-1.647062 -1.582423,-2.939908 -2.572282,-4.287768 -0.342306,-0.466108 -0.637566,-0.949165 -0.656134,-1.073461 -0.05984,-0.400603 -0.132819,-0.508481 -0.343971,-0.508481 -0.283075,0 -0.478129,-0.218492 -0.478129,-0.535582 0,-0.350923 0.418623,-1.159356 0.600338,-1.159356 0.07907,0 0.203791,-0.224444 0.27716,-0.498765 0.0908,-0.339484 0.336724,-0.71838 0.77008,-1.186456 0.568121,-0.613638 0.68381,-0.687691 1.07434,-0.687691 0.367291,0 0.448564,-0.04344 0.505475,-0.270198 0.06924,-0.275867 0.410277,-0.407777 1.054263,-0.407777 0.78708,0 4.122762,3.5789 5.792422,6.214771 0.396131,0.625366 1.269833,2.15475 1.291039,2.259917 0.0063,0.03107 0.172052,0.398606 0.368415,0.816738 0.219718,0.467867 0.357023,0.939088 0.357023,1.225284 0,0.356629 0.0485,0.477726 0.20803,0.519444 0.363528,0.09506 0.582941,1.077597 0.582941,2.61041 0,1.283956 0.01419,1.371157 0.234507,1.441083 0.128979,0.04094 0.268811,0.03954 0.310738,-0.0031 0.165351,-0.168158 0.298725,2.240965 0.228356,4.124741 -0.08253,2.209354 -0.325978,3.828578 -0.598553,3.981119 -0.1246,0.06973 -0.175048,0.275062 -0.175048,0.712472 0,1.298998 -1.359655,4.74596 -3.029163,7.679454 -1.047624,1.84078 -4.071978,6.128347 -4.403768,6.243135 -0.04509,0.0156 -1.285829,-1.077633 -2.757191,-2.42941 z"
       id="path152" />
    <path
       style="fill:none;stroke:#000000;stroke-width:1px;stroke-linecap:butt;stroke-linejoin:miter;stroke-opacity:1"
       d="m 44.859349,19.096297 c 0,0 -19.209293,22.034189 0.451983,38.644577"
       id="path154" />
    <path
       style="fill:none;stroke:#000000;stroke-width:1px;stroke-linecap:butt;stroke-linejoin:miter;stroke-opacity:1"
       d="m 51.187116,23.277143 c 0,0 -11.638572,15.141443 -0.451984,29.152927"
       id="path156" />
    <path
       style="fill:none;stroke:#000000;stroke-width:1.22141px;stroke-linecap:butt;stroke-linejoin:miter;stroke-opacity:1"
       d="m 44.327367,19.365303 c 0.562524,0.131382 6.090906,-2.099014 6.663484,4.299051"
       id="path158" />
    <path
       style="fill:none;stroke:#000000;stroke-width:0.969984px;stroke-linecap:butt;stroke-linejoin:miter;stroke-opacity:1"
       d="m 45.192435,57.657168 c 0,0 6.572375,2.851387 5.476979,-5.483439"
       id="path160" />
    <path
       style="fill:none;stroke:#000000;stroke-width:1px;stroke-linecap:butt;stroke-linejoin:miter;stroke-opacity:1"
       d="m 30.96086,12.76853 c 0,0 -23.6161304,25.763052 0.790971,52.317074"
       id="path162" />
    <path
       style="fill:none;stroke:#000000;stroke-width:1.02092px;stroke-linecap:butt;stroke-linejoin:miter;stroke-opacity:1"
       d="m 37.332105,59.200075 c -17.576468,-18.952578 0,-41.176732 0,-41.176732 0,-0.451253 3.892775,-7.332843 -6.605921,-5.076584"
       id="path164" />
    <path
       style="fill:none;stroke:#000000;stroke-width:0.985332px;stroke-linecap:butt;stroke-linejoin:miter;stroke-opacity:1"
       d="m 31.452936,64.951628 c 0,0 7.69439,3.247921 5.770794,-6.031858"
       id="path166" />
    <path
       style="fill:#000000;stroke-width:0.112996"
       d="m 33.528449,65.03741 c -0.06215,-0.02128 -0.359566,-0.07198 -0.660928,-0.11268 -0.473182,-0.06389 -0.621781,-0.153746 -1.089235,-0.658613 -1.202421,-1.298659 -3.87486,-4.703086 -4.04789,-5.156618 -0.03648,-0.09561 -0.147771,-0.261562 -0.247321,-0.368787 -0.225742,-0.243147 -1.857614,-2.96104 -2.053977,-3.420912 -0.07961,-0.186443 -0.177358,-0.364411 -0.217218,-0.395485 -0.07406,-0.05773 -0.779043,-1.423133 -0.78606,-1.522424 -0.0021,-0.03013 -0.141379,-0.348227 -0.309443,-0.706878 -0.230322,-0.491513 -0.319483,-0.888609 -0.362068,-1.612557 -0.05415,-0.920555 -0.06824,-0.962112 -0.338988,-1.000106 -0.155369,-0.0218 -0.319847,-0.09807 -0.365506,-0.169493 -0.04566,-0.07142 -0.08379,-0.742573 -0.08475,-1.491453 -0.0018,-1.442716 -0.06362,-1.63279 -0.530801,-1.63279 h -0.257882 l -0.03026,-2.740149 -0.03026,-2.740149 -0.362742,-0.03507 -0.362742,-0.03507 -0.03274,-2.23616 c -0.01801,-1.229887 -0.0163,-2.320051 0.0038,-2.422586 0.02362,-0.120523 0.149167,-0.186427 0.355147,-0.186427 0.186296,0 0.347096,-0.07423 0.3872,-0.178736 0.03772,-0.0983 0.06928,-1.255099 0.07013,-2.570655 8.48e-4,-1.315555 0.03145,-2.50345 0.068,-2.639765 0.04346,-0.162055 0.170039,-0.259838 0.365693,-0.282489 l 0.299232,-0.03465 0.06704,-1.35595 c 0.07519,-1.520797 0.129926,-1.723317 0.479247,-1.773078 0.218943,-0.03119 0.2517,-0.124019 0.311346,-0.882324 0.07467,-0.949301 0.253563,-1.422907 0.568592,-1.505289 0.166518,-0.04354 0.212237,-0.161189 0.212307,-0.546307 5.8e-5,-0.321327 0.123812,-0.744433 0.358383,-1.225284 0.197061,-0.40396 0.364677,-0.759897 0.372478,-0.790971 0.02913,-0.116018 1.07255,-2.094348 1.772517,-3.360694 0.154175,-0.278926 0.347598,-0.47969 0.462674,-0.480232 0.140937,-6.64e-4 0.197742,-0.09166 0.197742,-0.316752 0,-0.343862 1.015175,-1.940639 2.192252,-3.448212 0.379028,-0.485451 0.816263,-1.052236 0.971632,-1.259523 0.355369,-0.474117 0.52398,-0.502232 3.110258,-0.518617 2.174636,-0.01378 2.613139,0.06837 2.675003,0.501089 0.0201,0.140589 0.111029,0.233038 0.22115,0.224844 0.269181,-0.02003 0.482932,0.827645 0.388397,1.540274 -0.154007,1.160974 -0.527352,2.069872 -1.415276,3.445459 -0.481387,0.745772 -1.167525,1.885668 -1.52475,2.533101 -0.357226,0.647433 -0.734073,1.306223 -0.837437,1.463977 -0.103364,0.157753 -0.177614,0.300715 -0.165,0.317692 0.05525,0.07436 -0.469214,1.120523 -0.615571,1.22789 -0.08911,0.06537 -0.147159,0.192494 -0.128989,0.28249 0.04891,0.242253 -0.425717,1.229173 -0.628561,1.307012 -0.10988,0.04216 -0.175257,0.207862 -0.175257,0.444184 0,0.430489 -0.540192,1.971802 -0.691067,1.971802 -0.05495,0 -0.0999,0.131939 -0.0999,0.293197 0,0.402062 -0.447403,1.869626 -0.636736,2.088613 -0.08483,0.09812 -0.154235,0.361053 -0.154235,0.584306 0,0.223254 -0.0994,0.829428 -0.220888,1.347053 -0.121488,0.517626 -0.255159,1.20809 -0.297047,1.534366 -0.04189,0.326275 -0.115072,0.593228 -0.162633,0.593228 -0.114773,0 -0.20345,1.328922 -0.290293,4.35034 -0.122146,4.249634 0.409825,7.460049 1.844275,11.13009 1.194161,3.055264 3.426302,6.705045 5.357511,8.76008 0.51551,0.548564 0.538192,0.601919 0.666827,1.568548 0.13318,1.00079 0.08993,1.834129 -0.131017,2.524649 -0.06463,0.20198 -0.164412,0.367236 -0.221739,0.367236 -0.05733,0 -0.104233,0.09382 -0.104233,0.208479 0,0.224029 -0.332322,0.582492 -0.540013,0.582492 -0.0697,0 -0.172478,0.08174 -0.228388,0.181648 -0.174205,0.311287 -1.813879,0.619592 -2.338985,0.439797 z"
       id="path168" />
    <path
       style="fill:#000000;stroke-width:0.112996"
       d="m 46.145004,57.345859 c -0.715358,-0.192458 -1.384046,-0.731806 -2.901058,-2.339919 -0.663218,-0.703048 -1.069307,-1.229793 -1.111767,-1.442093 -0.04547,-0.227351 -0.134477,-0.33447 -0.277917,-0.33447 -0.124812,0 -0.297054,-0.159749 -0.421604,-0.391024 -0.115819,-0.215064 -0.231817,-0.369788 -0.257773,-0.343833 -0.09515,0.09514 -0.584196,-0.752334 -0.584196,-1.012355 0,-0.417533 -0.117607,-0.6257 -0.353499,-0.6257 -0.253769,0 -0.396897,-0.302792 -0.494067,-1.045212 -0.06056,-0.462691 -0.105759,-0.53673 -0.327676,-0.53673 -0.369324,0 -0.519695,-0.423072 -0.519695,-1.462173 0,-0.928271 -0.0533,-1.023736 -0.571553,-1.023736 -0.200643,0 -0.216023,-0.122355 -0.244999,-1.949178 l -0.03092,-1.949178 -0.367237,-0.03541 -0.367236,-0.03541 0.007,-3.354467 c 0.0077,-3.71607 0.113586,-4.710417 0.501514,-4.710417 0.207316,0 0.231623,-0.09804 0.294136,-1.186456 0.05148,-0.896284 0.142374,-1.379905 0.371657,-1.977427 0.166933,-0.435034 0.32253,-0.867243 0.345772,-0.960465 0.120199,-0.482113 1.186494,-2.842194 1.924221,-4.258967 0.993635,-1.908232 2.475648,-4.28391 2.771041,-4.442 0.11532,-0.06172 0.225935,-0.22154 0.245812,-0.355161 0.03546,-0.23839 0.17876,-0.358537 0.572871,-0.480321 0.130185,-0.04023 0.197743,-0.175683 0.197743,-0.396479 0,-0.295778 0.04336,-0.339555 0.367236,-0.370783 0.326118,-0.03144 0.371321,-0.07813 0.403714,-0.416976 l 0.03648,-0.381569 0.810991,0.06174 c 1.120398,0.0853 1.658461,0.25959 1.658461,0.53721 0,0.185871 0.07937,0.220681 0.503164,0.220681 0.681739,0 1.078778,0.193819 1.078778,0.526618 0,0.216222 0.05952,0.264353 0.326898,0.264353 0.389978,0 0.464073,0.151343 0.464073,0.947893 0,0.524032 0.03143,0.602405 0.279473,0.696982 l 0.279474,0.10656 -0.738998,1.129958 c -0.97803,1.495447 -2.373899,4.313684 -3.045291,6.148396 -0.297637,0.813353 -0.578767,1.478824 -0.624733,1.478824 -0.04597,0 -0.116683,0.266952 -0.15715,0.593228 -0.152773,1.23176 -0.312359,1.779684 -0.51834,1.779684 -0.109589,0 -0.22425,0.113509 -0.260481,0.257864 -0.0356,0.141825 -0.06524,2.225739 -0.06588,4.630918 l -0.0012,4.373055 0.266392,0.256151 c 0.250049,0.240438 0.394624,0.700132 0.578088,1.838094 0.04008,0.248591 0.139283,0.528256 0.220455,0.621477 0.08117,0.09322 0.309074,0.576279 0.506448,1.073461 0.666047,1.677763 2.219137,4.325041 3.178268,5.417431 0.338602,0.385647 0.345101,0.41499 0.294615,1.330315 -0.0915,1.65892 -0.332151,2.496332 -0.756044,2.63087 -0.124361,0.03947 -0.226111,0.163809 -0.226111,0.276307 0,0.327244 -0.31661,0.50505 -0.841808,0.472753 -0.320251,-0.01969 -0.542484,0.02994 -0.659922,0.147372 -0.220237,0.220238 -0.938375,0.220117 -1.757632,-3.39e-4 z"
       id="path170" />
    <path
       style="fill:none;stroke:#000000;stroke-width:1px;stroke-linecap:butt;stroke-linejoin:miter;stroke-opacity:1"
       d="m 52.302949,85.622598 c -0.182907,-0.02032 -0.0812,0.0075 -0.25424,-0.08475 -0.04778,-0.04417 -0.11475,-0.04325 -0.169494,-0.07062 -0.137846,-0.06892 0.04956,-0.02998 -0.169494,-0.08475 -0.06985,-0.01746 -0.146612,-0.02062 -0.211867,-0.04237 -0.04581,-0.01527 -0.252234,-0.01212 -0.254241,-0.01412 -0.0074,-0.0074 -0.0067,-0.02081 -0.01412,-0.02825 -0.012,-0.012 -0.09916,-0.05944 -0.127121,-0.07062 -0.01311,-0.0052 -0.03062,0.0078 -0.04237,0 -0.01108,-0.0074 -0.01634,-0.02229 -0.02825,-0.02825 -0.0084,-0.0042 -0.01932,0.003 -0.02825,0 -0.02584,-0.0086 -0.08475,-0.05514 -0.08475,-0.08475"
       id="path172" />
    <path
       style="fill:#000000;stroke-width:0.0799001"
       d="m 21.858796,45.502253 c -0.136754,-0.714107 -0.302472,-1.720579 -0.368261,-2.236604 -0.143042,-1.12197 -0.303216,-3.822867 -0.266571,-4.494981 0.01438,-0.263671 0.05742,0.194756 0.09566,1.018726 l 0.06952,1.498128 0.249948,0.0012 c 0.137471,6.71e-4 0.291014,0.02764 0.341207,0.05992 0.06449,0.04149 0.09964,0.849561 0.11985,2.755331 0.01573,1.483147 0.0238,2.696629 0.01794,2.696629 -0.0059,0 -0.12254,-0.584269 -0.259295,-1.298377 z"
       id="path174" />
    <path
       style="fill:#000000;stroke-width:0.0799001"
       d="m 21.369689,36.215958 c 0,-0.5785 0.547507,-4.034243 0.724504,-4.572906 0.04592,-0.139743 0.05659,0.658107 0.02855,2.133858 -0.0315,1.657586 -0.07282,2.383673 -0.139246,2.446754 -0.05195,0.04933 -0.211308,0.111357 -0.354129,0.137827 -0.234781,0.04351 -0.259676,0.02956 -0.259676,-0.145533 z"
       id="path176" />
    <path
       style="fill:#000000;stroke-width:0.0799001"
       d="m 22.328491,30.635517 c 0,-0.100091 0.529663,-2.017749 0.599903,-2.171965 0.02002,-0.04395 0.01486,0.42347 -0.01146,1.038701 -0.02632,0.615231 -0.05263,1.122426 -0.05847,1.1271 -0.0058,0.0047 -0.127474,0.03074 -0.270296,0.05793 -0.182297,0.0347 -0.259675,0.01928 -0.259675,-0.05176 z"
       id="path178" />
    <path
       style="fill:#000000;stroke-width:0.0799001"
       d=""
       id="path180" />
    <path
       style="fill:none;stroke:#000000;stroke-width:1px;stroke-linecap:butt;stroke-linejoin:miter;stroke-opacity:1"
       d="m 22.344927,46.808527 c 0.383071,0.510761 -0.221274,-0.315433 0.141245,0.254241 0.100925,0.158596 0.274704,0.28204 0.310739,0.480232 0.01976,0.108695 -0.03094,0.258954 0,0.367236 0.01393,0.04876 0.0442,0.09205 0.0565,0.141245 0.03749,0.149974 -0.02547,0.327415 0,0.480232 0.01779,0.106719 0.11169,0.207297 0.141245,0.310739 0.0078,0.02716 -0.01263,0.05948 0,0.08475 0.0094,0.01883 0.04708,0.0094 0.0565,0.02825 0.02147,0.04295 0.0093,0.09711 0.02825,0.141245 0.02989,0.06975 0.162085,0.211174 0.197743,0.282489 0.03473,0.06945 0.02923,0.153287 0.0565,0.225992 0.108749,0.289998 0.169494,0.589805 0.169494,0.903967 0,0.14303 0.224044,0.510428 0.112996,0.621477"
       id="path182" />
    <path
       style="fill:none;stroke:#000000;stroke-width:1px;stroke-linecap:butt;stroke-linejoin:miter;stroke-opacity:1"
       d="m 22.034189,40.452511 c 0.09818,0.343617 0.06497,0.172259 0.08475,0.706224 0.01339,0.361564 0.0201,0.739874 0,1.101709 -0.01717,0.308963 -0.05047,0.621103 -0.02825,0.932216 0.01334,0.186741 0.09626,0.352666 0.112996,0.53673 0.04473,0.492061 -0.06063,1.040437 0,1.525444 0.04088,0.327042 -0.01248,0.662862 0.02825,0.988714 0.0088,0.07079 0.02825,0.124989 0.02825,0.197742"
       id="path184" />
    <path
       style="fill:none;stroke:#000000;stroke-width:1px;stroke-linecap:butt;stroke-linejoin:miter;stroke-opacity:1"
       d="m 22.28843,43.079664 c -0.265305,0.01556 -0.28249,-0.100596 -0.28249,0.169494 0,0.04708 -0.01489,0.09658 0,0.141245 0.01438,0.04315 0.02825,0.03297 0.02825,0.08475"
       id="path186" />
    <path
       id="path188"
       style="fill:none;stroke:#000000;stroke-width:1px;stroke-linecap:butt;stroke-linejoin:miter;stroke-opacity:1"
       d="m 37.740234,34.011719 c 0.147315,0 0.412326,0.01584 0.509766,0.113281 0.0577,0.05773 0.04039,0.211713 0.05469,0.283203 0.08427,0.421356 0.164366,0.754641 0.05664,1.185547 -0.01772,0.0709 0.01772,0.155663 0,0.226562 -0.0065,0.02584 -0.04824,0.03137 -0.05664,0.05664 -0.129974,0.389922 -0.201302,0.785822 -0.28125,1.185547 -0.05847,0.292362 -0.233454,0.549146 -0.283204,0.847656 -0.01858,0.111459 0.01402,0.227721 0,0.339844 -0.0096,0.07705 -0.03781,0.149279 -0.05664,0.224609 -0.01883,0.03766 -0.05064,0.07159 -0.05664,0.113282 -0.06975,0.488267 -0.0034,1.045261 0.05664,1.52539 0.03572,0.285769 -0.06975,0.625302 0,0.904297 0.02889,0.115552 0.0844,0.224292 0.113281,0.339844 0.05003,0.200112 0,0.474188 0,0.677734 v 1.638672 c 0,0.338988 -0.05891,0.681795 0,1.015625 0.02796,0.158458 0.113422,0.302464 0.169922,0.453125 -0.03795,0.276779 0.124223,0.483032 0.169922,0.734375 0.02021,0.111173 -0.02451,0.227586 0,0.337891 0.01473,0.06629 0.09463,0.104633 0.113281,0.169922 0.0207,0.07243 0,0.151232 0,0.226562 0.03767,0.112996 0.06857,0.226722 0.111328,0.337891 0.212782,0.553234 0.547705,1.078664 0.734375,1.638672 0.05058,0.151757 0.06269,0.301368 0.113281,0.453125 0.0565,0.169493 0.147762,0.33053 0.169922,0.507812 0.08808,0.704675 -0.122497,-0.185025 0.05664,0.621094 0.07775,0.349851 0.237594,0.676747 0.339844,1.017578 0.0959,0.319679 0.146111,0.616629 0.33789,0.904297 0.07126,0.106897 0.221117,0.335168 0.339844,0.394531 0.01684,0.0084 0.04822,-0.01684 0.05664,0 0.01684,0.03369 -0.02663,0.08664 0,0.113281 0.02921,0.02921 0.241094,0.03656 0.28125,0.05664 0.184426,0.09221 -0.273994,0.03063 0.05664,0.113281 0.05481,0.0137 0.115598,-0.01552 0.169922,0 0.214737,0.06135 0.726801,0.443598 0.904297,0.621094 0.263772,0.263772 0.457725,0.684289 0.734375,0.960937 0.04801,0.04801 0.121908,0.06527 0.169922,0.113282 0.139944,0.139944 0.294904,0.408186 0.451172,0.564453 0.09791,0.09791 0.244489,0.162057 0.339844,0.28125 0.101204,0.126504 0.166694,0.28193 0.28125,0.396484 0.119011,0.119011 0.289943,0.176661 0.396484,0.283203 0.335368,0.08311 0.473001,0.446845 0.734375,0.621094 0.147989,0.09866 0.728622,0.359396 0.904297,0.394531 0.0554,0.01108 0.113158,-0.0137 0.167968,0 0.07751,0.01938 0.101408,0.128814 0.169922,0.169922 0.114848,0.06891 0.283029,0.113194 0.396485,0.169922 0.07494,0.03747 0.201085,-0.02672 0.28125,0 0.356946,0.118982 1.121622,0.115709 1.46875,0 0.167432,-0.05581 0.191731,-0.191731 0.283203,-0.283203 0.02663,-0.02663 0.08194,0.02089 0.113281,0 0.08692,-0.05795 0.139643,-0.168617 0.226563,-0.226562 0.192059,-0.12804 0.02892,-0.0058 0.224609,-0.05469 0.121746,-0.03044 0.995108,-0.645982 1.017578,-0.679688 0.181653,-0.27248 0.169922,-1.057641 0.169922,-1.412109 0,-0.723672 0.05524,-1.472367 -0.113281,-2.146484 C 50.292194,52.35237 50.055849,52.089422 50,51.921875 c -0.01191,-0.03573 0.01685,-0.07959 0,-0.113281 -0.01636,-0.03272 -0.12627,0.02676 -0.167969,-0.05664 C 49.713724,51.515338 49.603756,51.241856 49.435547,51.017578 49.323097,50.867645 49.1978,50.789955 49.097656,50.623047 48.991988,50.446935 48.871126,50.207726 48.757812,50.056641 48.6072,49.855823 48.36422,49.663988 48.25,49.435547 c -0.184965,-0.36993 -0.440236,-0.708597 -0.623047,-1.074219 -0.04536,-0.09071 -0.05507,-0.196866 -0.111328,-0.28125 -0.02336,-0.03504 -0.08993,-0.0216 -0.113281,-0.05664 -0.05626,-0.08438 -0.06793,-0.192494 -0.113282,-0.283204 -0.01191,-0.02382 -0.0378,-0.03781 -0.05664,-0.05664 -0.0565,-0.07533 -0.12781,-0.140388 -0.169922,-0.22461 -0.03473,-0.06945 -0.03208,-0.152897 -0.05664,-0.226562 -0.08068,-0.242038 -0.223854,-0.506302 -0.33789,-0.734375 -0.07488,-0.149756 -0.221123,-0.297927 -0.283203,-0.453125 -0.01399,-0.03497 0.01191,-0.07559 0,-0.111328 -0.06986,-0.20958 -0.218961,-0.454845 -0.283204,-0.679688 -0.01035,-0.03622 0.01684,-0.07764 0,-0.111328 -0.02382,-0.04764 -0.08392,-0.06761 -0.111328,-0.113281 -0.13801,-0.230016 -0.181334,-0.802853 -0.226562,-1.074219 -0.0381,-0.22862 0,-0.501795 0,-0.734375 0,-0.806957 0.04364,-1.645041 -0.113281,-2.429687 -0.03195,-0.159769 0.051,-0.354828 0,-0.507813 -0.0765,-0.229489 -0.1988,-0.427861 -0.226563,-0.677734 -0.0104,-0.09359 0.01432,-0.190134 0,-0.283203 -0.06129,-0.398374 -0.219961,-0.787173 -0.28125,-1.185547 -0.01432,-0.09307 0.01432,-0.190134 0,-0.283203 -0.03527,-0.229257 -0.134651,-0.448477 -0.169922,-0.677735 -0.04902,-0.318614 -0.0841,-0.639898 -0.113281,-0.960937 -0.02502,-0.275268 -0.08142,-1.280246 0.169922,-1.46875 0.143231,-0.107423 0.867118,-0.298967 0.734375,-0.564453 -0.03491,-0.06981 -0.05483,-0.05664 -0.113281,-0.05664 z" />
    <path
       style="fill:none;stroke:#000000;stroke-width:1px;stroke-linecap:butt;stroke-linejoin:miter;stroke-opacity:1"
       d="m 23.36189,50.904626 c 0.06857,0.251874 0.0623,0.509227 0.112996,0.762722 0.0067,0.03329 -0.01482,0.08337 0,0.112996 0.02548,0.05097 0.08823,0.09171 0.112996,0.141245 0.03479,0.06958 -0.082,-0.0255 0.02825,0.08475 0.01412,0.01412 0.07062,-0.01412 0.08475,0 0.05845,0.05845 -0.08932,-0.0023 0.02825,0.0565 0.0084,0.0042 0.02159,-0.0067 0.02825,0 0.07823,0.07823 0.116106,0.21731 0.169494,0.310739 0.02336,0.04088 0.06986,0.06833 0.08475,0.112996 0.006,0.01787 -0.0091,0.04004 0,0.0565 0.130349,0.234628 0.314496,0.42058 0.451983,0.649726 0.04591,0.07651 0.07069,0.197878 0.112996,0.282489 0.03588,0.07177 0.03376,-0.02893 0.0565,0.08475 0.02554,0.127705 0.0071,0.268475 0.02825,0.395486 0.0085,0.05074 0.03509,0.183176 0.0565,0.225991 0.03843,0.07687 0.07064,0.02834 0.08475,0.112996 0.0172,0.10321 -0.02646,0.09655 0.02825,0.169494 0.07091,0.09455 0.172093,0.174692 0.225992,0.28249 0.01332,0.02663 0.01293,0.05921 0.02825,0.08475 0.0137,0.02284 0.04661,0.03177 0.0565,0.0565 0.01049,0.02623 -0.01263,0.05948 0,0.08475 0.01518,0.03037 0.06956,0.02613 0.08475,0.0565 0.0637,0.127405 -0.01645,0.04806 0.08475,0.169494 0.02558,0.03069 0.06688,0.04901 0.08475,0.08475 0.01263,0.02527 -0.0089,0.05795 0,0.08475 0.0261,0.07829 0.110552,0.149259 0.141245,0.225991 0.06892,0.172294 -0.114924,-0.09738 0.02825,0.141245 0.05692,0.09487 0.16533,0.163248 0.225992,0.254241 0.05424,0.08137 0.120657,0.172846 0.169493,0.254241 0.09089,0.151476 0.165601,0.32068 0.254241,0.480232 0.08351,0.150319 0.18817,0.293414 0.254241,0.451983 0.05503,0.132069 0.08888,0.264588 0.141244,0.395486 0.03721,0.09303 0.118412,0.09798 0.169494,0.169493 0.03766,0.0565 0.07533,0.112996 0.112996,0.169494 0.03767,0.03767 0.08204,0.06965 0.112996,0.112996 0.01731,0.02423 0.01293,0.05921 0.02825,0.08475 0.053,0.08833 0.151111,0.160977 0.197743,0.254241 0.07136,0.142723 0.160371,0.264069 0.25424,0.395485 0.01316,0.01842 0.147712,0.175167 0.169494,0.225992 0.119171,0.278065 -0.07665,-0.05646 0.08475,0.225991 0.03649,0.06385 0.108355,0.103715 0.141245,0.169494 0.01263,0.02527 -0.01453,0.06052 0,0.08475 0.01747,0.02911 0.06591,0.02825 0.08475,0.0565 0.02154,0.0323 0.01089,0.07827 0.02825,0.112996 0.01191,0.02382 0.0428,0.03366 0.0565,0.0565 0.0502,0.08367 0.07699,0.173916 0.141245,0.25424 0.07951,0.09938 0.166299,0.222797 0.254241,0.310739 0.02401,0.02401 0.06354,0.02999 0.08475,0.0565 0.0186,0.02325 0.01173,0.05997 0.02825,0.08475 0.09557,0.143355 0.258452,0.259505 0.367236,0.395485 0.101117,0.126396 0.154224,0.308447 0.225992,0.451983 0.03789,0.07578 0.08031,0.221552 0.141245,0.28249 0.01489,0.01489 0.04426,0.01112 0.0565,0.02825 0.03671,0.0514 0.05127,0.115929 0.08475,0.169494 0.01412,0.02258 0.04459,0.03268 0.0565,0.0565 0.02663,0.05327 0.02586,0.118426 0.0565,0.169493 0.047,0.07833 0.164818,0.180833 0.225992,0.254241 0.161066,0.193279 0.316821,0.397276 0.508481,0.564979 0.164952,0.144333 0.340248,0.28354 0.508481,0.423735 0.07581,0.06317 0.179575,0.08151 0.254241,0.141245 0.101369,0.08109 0.164696,0.192945 0.254241,0.282489 0.03329,0.03329 0.0797,0.05145 0.112996,0.08475 0.140012,0.140012 0.215344,0.325678 0.338987,0.480232 0.02496,0.0312 0.06419,0.05049 0.08475,0.08475 0.0097,0.01615 -0.0084,0.03965 0,0.0565 0.02978,0.05955 0.106988,0.08415 0.141245,0.141245 0.0097,0.01615 -0.01045,0.04083 0,0.0565 0.01168,0.01752 0.04161,0.01336 0.0565,0.02825 0.0067,0.0067 0,0.01883 0,0.02825 0.0094,0.0094 0.01717,0.02086 0.02825,0.02825 0.294511,0.196341 0.847236,0.112996 1.186456,0.112996 0.08419,0 0.200435,-0.02051 0.28249,0 0.120777,0.03019 0.180927,0.118712 0.282489,0.169493 0.105232,0.05262 0.201832,0.01149 0.310739,0.02825 0.680255,0.104655 -0.04629,0.0026 0.395485,0.112996 0.103085,0.02577 0.317742,0.01767 0.423735,0 0.0907,-0.01512 0.171825,-0.08552 0.25424,-0.112996 0.178251,-0.05942 0.411363,0.0496 0.593228,0 0.06094,-0.01662 0.110845,-0.06129 0.169494,-0.08475 0.114611,-0.04584 0.517668,-0.112306 0.564979,-0.25424 0.02394,-0.07181 0.06915,-0.204523 0.08475,-0.28249 0.02336,-0.116787 0.0045,-0.248544 0.02825,-0.367236 0.01577,-0.07884 0.05531,-0.15239 0.08475,-0.225992 0.04714,-0.117861 0.10531,-0.247453 0.141245,-0.367236 0.01646,-0.05486 0.01179,-0.114633 0.02825,-0.169494 0.04873,-0.162441 0.138172,-0.307965 0.169494,-0.480233 0.04122,-0.226682 -0.02293,-0.476912 0,-0.706224 0.0434,-0.43396 0.162152,-0.860385 0.141244,-1.299452 -0.0121,-0.254206 -0.06023,-0.487689 -0.169493,-0.706224 -0.02228,-0.04456 0.01369,-0.121593 0,-0.169494 -0.02859,-0.100062 -0.08441,-0.210676 -0.112996,-0.310738 -0.0078,-0.02716 0.01998,-0.06477 0,-0.08475 -0.03766,-0.03767 -0.02825,0.04708 -0.02825,-0.02825"
       id="path204" />
    <path
       style="fill:none;stroke:#000000;stroke-width:1px;stroke-linecap:butt;stroke-linejoin:miter;stroke-opacity:1"
       d="m 22.118936,46.356543 -0.08475,0.08475"
       id="path206" />
    <path
       style="fill:none;stroke:#000000;stroke-width:1px;stroke-linecap:butt;stroke-linejoin:miter;stroke-opacity:1"
       d="m 24.915583,48.531713 -1.63844,2.401162"
       id="path208" />
    <path
       style="fill:none;stroke:#000000;stroke-width:1px;stroke-linecap:butt;stroke-linejoin:miter;stroke-opacity:1"
       d="m 24.830836,45.170087 -2.853145,1.242954"
       id="path210" />
    <path
       style="fill:none;stroke:#000000;stroke-width:1px;stroke-linecap:butt;stroke-linejoin:miter;stroke-opacity:1"
       d="m 23.64438,48.192726 3.107385,0.81922"
       id="path212" />
    <path
       style="fill:none;stroke:#000000;stroke-width:1px;stroke-linecap:butt;stroke-linejoin:miter;stroke-opacity:1"
       d="m 21.751699,44.689855 c 0.03601,-0.238286 -0.125649,-0.430502 -0.169493,-0.649726 -0.01569,-0.07846 0.0096,-0.177173 0,-0.254241 -0.0037,-0.02955 -0.02404,-0.05527 -0.02825,-0.08475 -0.04373,-0.306134 0.03961,-0.626856 -0.02825,-0.932215 -0.04276,-0.192424 -0.113308,-0.369416 -0.141245,-0.56498 -0.04715,-0.330035 -0.02825,-0.677335 -0.02825,-1.016962 0,-0.121088 0.01977,-0.248586 0,-0.367237 -0.0802,-0.481215 -0.02825,-1.008535 -0.02825,-1.497195 0,-0.527313 0,-1.054627 0,-1.581941 0,-0.206309 0.02939,-0.44399 0,-0.649726 -0.04507,-0.315498 0.0039,-0.02052 -0.0565,-0.141245 -0.04056,-0.08112 0,-0.465099 0,-0.564979"
       id="path214" />
    <path
       style="fill:none;stroke:#000000;stroke-width:1px;stroke-linecap:butt;stroke-linejoin:miter;stroke-opacity:1"
       d="m 21.356214,36.271665 c 0.0094,-0.03767 0.02631,-0.07422 0.02825,-0.112996 0.0075,-0.150473 -0.0063,-0.301453 0,-0.451983 0.0075,-0.179743 0.04751,-0.357057 0.0565,-0.536731 0.01007,-0.201484 -0.0025,-0.396582 0.0565,-0.593228 0.0438,-0.146009 0.05735,-0.124403 0.112995,-0.25424 0.04285,-0.09998 0.05641,-0.211576 0.08475,-0.310739 0.02704,-0.09463 0.08859,-0.197063 0.112996,-0.28249 0.01573,-0.05507 0.01251,-0.11442 0.02825,-0.169493 0.0326,-0.114081 0.147133,-0.229333 0.197743,-0.338988 0.06743,-0.146096 0.114505,-0.300765 0.169494,-0.451983 0.04453,-0.122466 0.01831,-0.239963 0.0565,-0.367237 0.06081,-0.202703 0.181466,-0.393099 0.25424,-0.593228 0.06397,-0.175923 0.100178,-0.363442 0.169494,-0.53673 0.05227,-0.130685 0.105634,-0.296015 0.169494,-0.423735 0.02455,-0.04911 0.06504,-0.09 0.08475,-0.141244 0.05763,-0.14985 0.08162,-0.302922 0.141244,-0.451984 0.108631,-0.271575 -0.01443,-0.979324 0.02825,-1.299452 0.03031,-0.22732 0.132481,-0.427649 0.169494,-0.649726 0.01402,-0.08411 0.0091,-0.171156 0.02825,-0.254241 0.02753,-0.119277 0.111556,-0.22023 0.141245,-0.338987 0.0091,-0.03654 -0.01082,-0.07692 0,-0.112996 0.04518,-0.150611 0.156652,-0.285055 0.225992,-0.423734 0.03598,-0.07196 0.04483,-0.156139 0.08475,-0.225992 0.08343,-0.146003 0.15176,-0.25513 0.197743,-0.423734 0.105009,-0.385032 0.0015,-0.898779 0.02825,-1.299453 0.01247,-0.18704 0.116154,-0.358931 0.169494,-0.53673 0.0485,-0.161683 0.09912,-0.268613 0.197743,-0.367236"
       id="path216" />
    <path
       style="fill:none;stroke:#000000;stroke-width:1px;stroke-linecap:butt;stroke-linejoin:miter;stroke-opacity:1"
       d="m 21.977691,36.356412 c 0,-0.06591 -0.0143,-0.133398 0,-0.197743 0.02391,-0.107591 0.07814,-0.206179 0.112996,-0.310739 0.09201,-0.276031 0.226633,-0.624685 0.282489,-0.903966 0.03668,-0.183386 0.02825,-0.378531 0.02825,-0.56498 0,-0.160521 -0.01708,-0.310738 -0.197742,-0.310738 -0.01883,0 -0.04318,-0.01332 -0.0565,0 -0.146556,0.146556 -0.09229,1.007507 -0.0565,1.186456 0.0054,0.02718 0.01905,0.235192 0,0.254241 -0.02631,0.02631 -0.02825,-0.0022 -0.02825,0.0565"
       id="path218" />
    <path
       style="fill:none;stroke:#000000;stroke-width:1px;stroke-linecap:butt;stroke-linejoin:miter;stroke-opacity:1"
       d="m 21.299716,36.41291 c 0.110411,-0.01804 0.228257,0.01582 0.338987,0 0.04975,-0.0071 0.229486,-0.02116 0.28249,-0.0565 0.0425,-0.02833 -0.0297,-0.311464 -0.141245,-0.367237 -0.151021,-0.07551 -0.587947,0.126991 -0.564979,0.310739 0.0058,0.04672 0.0565,0.07533 0.08475,0.112996 z"
       id="path220" />
    <path
       style="fill:none;stroke:#000000;stroke-width:1px;stroke-linecap:butt;stroke-linejoin:miter;stroke-opacity:1"
       d="m 22.599168,29.435416 c -0.05455,0.174723 -0.06283,0.361135 -0.112996,0.536731 -0.04547,0.159148 -0.0062,-0.01578 -0.0565,0.08475 -0.06797,0.135948 -0.0937,0.224604 -0.141244,0.367236 -0.01661,0.04982 -0.06589,0.08468 -0.08475,0.141245 -0.05021,0.150618 0.05606,0.735353 0,0.847469 -0.06138,0.122764 -0.169494,0.0099 -0.169494,0.169493"
       id="path224" />
    <path
       style="fill:none;stroke:#000000;stroke-width:1px;stroke-linecap:butt;stroke-linejoin:miter;stroke-opacity:1"
       d="m 21.72345,44.718104 -0.0565,-0.0565"
       id="path226" />
    <path
       style="fill:none;stroke:#000000;stroke-width:1px;stroke-linecap:butt;stroke-linejoin:miter;stroke-opacity:1"
       d="m 21.610454,35.876179 c 0.06679,0.154858 -0.02632,0.708149 0.08475,0.81922"
       id="path228" />
    <path
       style="fill:none;stroke:#000000;stroke-width:1px;stroke-linecap:butt;stroke-linejoin:miter;stroke-opacity:1"
       d="m 21.977691,31.24335 c 0,-0.03767 -0.0091,-0.07645 0,-0.112996 0.0023,-0.0091 0.02825,-0.0094 0.02825,0 0,0.03882 -0.03147,0.0743 -0.02825,0.112996 0.0064,0.07738 0.04127,0.14985 0.0565,0.225992 0.03315,0.165755 0,0.366283 0,0.53673"
       id="path230" />
    <path
       style="fill:none;stroke:#000000;stroke-width:1px;stroke-linecap:butt;stroke-linejoin:miter;stroke-opacity:1"
       d="m 24.520097,24.322355 c -0.0078,-0.09368 0.01168,-0.189054 0,-0.28249 -0.0026,-0.02089 -0.02825,-0.03544 -0.02825,-0.0565 0,-0.06658 0.09701,-0.09148 0.141245,-0.141245 0.04886,-0.05497 0.08683,-0.120023 0.141245,-0.169493 0.109752,-0.09978 0.244804,-0.136512 0.338988,-0.254241 0.151222,-0.189029 0.267187,-0.487297 0.225991,-0.734473 -0.03071,-0.184278 -0.118182,-0.186298 0.02825,-0.395485 0.09928,-0.141823 0.252224,-0.237848 0.367237,-0.367237 0.176048,-0.198055 0.26228,-0.399468 0.395485,-0.621477 0.03102,-0.0517 0.08308,-0.0889 0.112996,-0.141245 0.06335,-0.110865 0.06621,-0.171247 0.08475,-0.282489 0.01617,-0.097 0.08642,-0.189466 0.112996,-0.28249 0.04969,-0.173901 0.08544,-0.369329 0.141244,-0.53673 0.01191,-0.03573 -0.01399,-0.07803 0,-0.112996 0.107966,-0.269914 0.307771,-0.51035 0.451984,-0.762722 0.146795,-0.256892 -0.0083,-0.0034 0.02825,-0.112996 0.07497,-0.224922 0.151345,-0.454036 0.225991,-0.677975 0.04316,-0.129485 0.277996,-0.160559 0.367237,-0.197743 0.145688,-0.0607 0.397939,-0.292064 0.480232,-0.423734 0.169342,-0.270946 0.207547,-0.568012 0.367237,-0.847469 0.144566,-0.252991 0.412527,-0.429569 0.53673,-0.677975 0.02381,-0.04762 0.0068,-0.12654 0.02825,-0.169494 0.04071,-0.08142 0.06018,-0.155989 0.08475,-0.25424 0.01409,-0.05634 -0.02572,-0.146299 0,-0.197743 0.02402,-0.04803 0.06184,-0.09542 0.08475,-0.141245 0.01187,-0.02373 0.01272,-0.125716 0.02825,-0.141245 0.0067,-0.0067 0.02527,0.0089 0.02825,0 0.0089,-0.0268 -0.0089,-0.05795 0,-0.08475 0.0039,-0.01165 0.249119,0 0.282489,0 0.115718,0 0.254882,-0.05714 0.338988,-0.141244 0.01489,-0.01489 0.01336,-0.04161 0.02825,-0.0565 0.0067,-0.0067 0.02159,0.0067 0.02825,0 0.104623,-0.104624 0.133634,-0.300592 0.225991,-0.423735 0.06402,-0.08536 0.08749,-0.164648 0.141245,-0.25424 0.04292,-0.07154 0.107955,-0.114518 0.141245,-0.197743 0.02212,-0.05529 0.01929,-0.12299 0.0565,-0.169494 0.02121,-0.02651 0.06301,-0.03042 0.08475,-0.0565 0.07188,-0.04441 0.04172,-0.140372 0.08475,-0.197742 0.01263,-0.01685 0.04482,-0.01073 0.0565,-0.02825 0.01883,-0.02825 -0.0094,-0.0565 0,-0.08475 0.0094,-0.01883 0.01883,-0.03767 0.02825,-0.0565 0.0094,0 0.02404,0.0084 0.02825,0 0.0084,-0.01685 -0.006,-0.03863 0,-0.0565 0.02445,-0.07336 0.189401,-0.176129 0.254241,-0.197743 0.156609,-0.0522 0.208382,0.08475 0.28249,0.08475"
       id="path232" />
    <path
       style="fill:none;stroke:#000000;stroke-width:1px;stroke-linecap:butt;stroke-linejoin:miter;stroke-opacity:1"
       d="M 27.034255,25.960794 24.491848,24.322355 27.796977,22.00594"
       id="path234" />
    <path
       style="fill:none;stroke:#000000;stroke-width:1px;stroke-linecap:butt;stroke-linejoin:miter;stroke-opacity:1"
       d="m 31.130354,13.277011 c 0.463168,0.03712 0.848382,-0.03782 1.299452,-0.112996 0.242596,-0.04043 0.591724,0.05687 0.81922,0 0.157139,-0.03928 0.320255,-0.073 0.480232,-0.112995 0.06829,-0.01707 0.127573,-0.0049 0.197743,-0.02825 0.108905,-0.0363 0.648086,0 0.790971,0 0.163163,0 0.404616,-0.04009 0.564979,0 0.136626,0.03416 0.273105,0.14596 0.367237,0.169493 0.09845,0.02461 0.01937,-0.04487 0.141244,0.02825 0.0804,0.04824 0.02555,0.06289 0.112996,0.08475 0.02741,0.0069 0.05948,-0.01263 0.08475,0 0.05513,0.02756 0.107038,0.09738 0.169494,0.112996 0.0274,0.0069 0.05758,-0.0078 0.08475,0 0.195543,0.05587 0.442814,0.160325 0.593228,0.310739 0.109523,0.109523 0.165186,0.273874 0.225992,0.395485 0.01263,0.02527 -0.0089,0.05795 0,0.08475 0.01736,0.05209 0.06435,0.09027 0.08475,0.141245 0.02933,0.07333 0.04762,0.17998 0.08475,0.25424 0.04307,0.08615 0.0224,-0.05166 0.0565,0.08475 0.01525,0.061 -0.0103,0.135945 0,0.197743 0.01166,0.06996 0.03997,0.131641 0.0565,0.197743 0.01746,0.06985 -0.01401,0.155945 0,0.225991 0.0026,0.01306 0.02404,0.01562 0.02825,0.02825 0.04215,0.126443 0.100016,0.660417 0.0565,0.790971 -0.01763,0.05288 -0.09193,0.116834 -0.112996,0.169494 -0.01491,0.03727 -0.03859,0.167895 -0.0565,0.197743 -0.02055,0.03426 -0.05979,0.05355 -0.08475,0.08475 -0.06542,0.08178 -0.076,0.190003 -0.112995,0.282489 -0.06121,0.153032 0.01327,-0.05036 -0.08475,0.112996 -0.143126,0.238543 -0.180225,0.535309 -0.28249,0.790971 -0.02578,0.06445 -0.08414,0.111783 -0.112996,0.169494 -0.02663,0.05327 -0.02986,0.116227 -0.0565,0.169493 -0.05862,0.117244 -0.280809,0.291774 -0.367236,0.395486 -0.0808,0.09696 0.01122,0.01432 -0.02825,0.112996 -0.02523,0.06308 -0.08159,0.163188 -0.112996,0.225991 -0.0764,0.152796 -0.195772,0.279206 -0.282489,0.423735 -0.02845,0.04741 -0.03655,0.119636 -0.0565,0.169494 -0.04744,0.1186 -0.146728,0.219951 -0.197743,0.338987 -0.05098,0.11895 -0.08912,0.249957 -0.141245,0.367237 -0.03937,0.08859 -0.101871,0.165649 -0.141245,0.25424 -0.04961,0.111632 -0.07849,0.23439 -0.141245,0.338988 -0.08072,0.134526 -0.193004,0.188302 -0.310738,0.282489 -0.05199,0.04159 -0.09009,0.09862 -0.141245,0.141245 -0.04356,0.0363 -0.155134,0.08443 -0.197743,0.141245 -0.152757,0.203676 -0.374297,0.529663 -0.451983,0.762722 -0.01518,0.04555 -0.0093,0.09711 -0.02825,0.141245 -0.01049,0.02448 -0.04601,0.03202 -0.0565,0.0565 -0.04714,0.109999 -0.06973,0.259082 -0.112996,0.367236 -0.06784,0.169612 -0.03518,0.01155 -0.112996,0.141245 -0.01532,0.02553 -0.01493,0.05811 -0.02825,0.08475 -0.04065,0.0813 -0.08787,0.102777 -0.141245,0.169493 -0.084,0.105006 -0.176434,0.271591 -0.225992,0.395486 -0.03649,0.09121 -0.0651,0.214952 -0.112996,0.310738 -0.02656,0.05313 -0.09404,0.122114 -0.112996,0.169494 -0.01049,0.02623 0.01049,0.05852 0,0.08475 -0.0099,0.02473 -0.04459,0.03268 -0.0565,0.0565 -0.01684,0.03369 0.01035,0.07678 0,0.112996 -0.01145,0.04007 -0.278007,0.899484 -0.282489,0.903967 -0.01489,0.01489 -0.04302,0.01207 -0.0565,0.02825 -0.100962,0.121154 -0.170137,0.29157 -0.254241,0.423734 -0.15228,0.239298 -0.310705,0.470738 -0.423734,0.734473 -0.05529,0.129012 -0.08624,0.267143 -0.141245,0.395485 -0.05174,0.120731 -0.130588,0.227063 -0.197743,0.338988 -0.06125,0.102087 -0.06936,0.229889 -0.112996,0.338987 -0.02796,0.06989 -0.08785,0.150566 -0.112995,0.225992 -0.133227,0.399681 0.01148,-8.93e-4 -0.02825,0.197743 -0.07161,0.358062 -0.02615,0.709281 -0.0565,1.07346 -0.01061,0.127356 -0.05381,0.299972 -0.08475,0.423735 -0.0439,0.175606 -0.263479,0.550588 -0.367237,0.706224 -0.0699,0.104848 -0.169281,0.197318 -0.225991,0.310738 -0.07807,0.156137 -0.06618,0.341328 -0.08475,0.508482 -0.0091,0.08199 -0.08299,0.320477 -0.112996,0.395485 -0.02039,0.05098 -0.06019,0.09213 -0.08475,0.141245 -0.03661,0.07323 -0.06895,0.175272 -0.08475,0.25424 -0.0057,0.02825 0.0113,0.0565 0,0.08475 -0.03803,0.09507 -0.120241,0.177472 -0.141245,0.28249 -0.04115,0.205769 -0.105618,0.407717 -0.141244,0.621477 -0.0168,0.10078 0.0168,0.209959 0,0.310739 -0.02963,0.177803 -0.02825,0.353942 -0.02825,0.53673 0,0.09441 0.01832,0.219129 0,0.310738 -0.01494,0.07469 -0.06618,0.15173 -0.08475,0.225992 -0.01121,0.04482 0.01954,0.130418 0,0.169494 -0.07775,0.155505 -0.08475,0.0386 -0.08475,0.197743"
       id="path236" />
    <path
       style="fill:none;stroke:#000000;stroke-width:1px;stroke-linecap:butt;stroke-linejoin:miter;stroke-opacity:1"
       d="m 29.294172,41.215233 c 0.02951,0.278496 -0.03182,0.547733 -0.0565,0.81922 -0.01077,0.118489 0.01694,0.248638 0,0.367236 -0.01588,0.111172 -0.07151,0.233097 -0.08475,0.338988 -0.04411,0.352917 0,0.746541 0,1.101709 0,0.209572 -0.03401,0.44569 0,0.649726 0.0021,0.01255 0.148066,0.393737 0.169494,0.423735 0.03096,0.04334 0.08204,0.06965 0.112995,0.112995 0.01882,0.02635 0.155641,0.396572 0.169494,0.451984 0.02423,0.09691 0.02486,0.215839 0.0565,0.310738 0.01332,0.03995 0.04493,0.0725 0.0565,0.112996 0.02176,0.07615 0.0024,0.176585 0.02825,0.254241 0.05231,0.15692 0.08145,0.324756 0.141245,0.480232 0.05903,0.153488 0.118996,0.307614 0.197742,0.451983 0.159084,0.291654 0.384882,0.568457 0.451984,0.903967 0.05983,0.299129 -0.0502,0.631043 0,0.932216 0.02343,0.140573 0.09715,0.381881 0.169494,0.508481 0.02336,0.04088 0.06369,0.07089 0.08475,0.112996 0.01736,0.03473 0.009,0.07929 0.02825,0.112996 0.01982,0.03469 0.06259,0.05151 0.08475,0.08475 0.03208,0.04812 0.24357,0.529204 0.254241,0.593228 0.0046,0.02786 -0.0089,0.05795 0,0.08475 0.01074,0.03221 0.04312,0.05354 0.0565,0.08475 0.09282,0.216574 -0.03525,0.600481 0.02825,0.790971 0.01712,0.05135 0.05843,0.145111 0.08475,0.197742 0.06089,0.121783 0.169202,0.208693 0.25424,0.310739 0.264941,0.317929 -0.08071,-0.07937 0.08475,0.141245 0.127126,0.169501 0.309321,0.307429 0.395486,0.508481 0.01529,0.03568 0.01089,0.07827 0.02825,0.112996 0.03258,0.06516 0.09686,0.117061 0.112995,0.197742 0.01331,0.06657 0.01191,0.132384 0.02825,0.197743 0.02061,0.08242 0.08275,0.150381 0.112996,0.225992 0.05565,0.139134 -0.110777,-0.04694 0.0565,0.141245 0.09816,0.110433 0.359194,0.294654 0.423735,0.423734 0.06465,0.129294 0.09976,0.299277 0.141244,0.423734 0.01489,0.04467 -0.0092,0.09508 0,0.141245 0.0099,0.04972 0.0442,0.09205 0.0565,0.141245 0.0023,0.0091 0,0.01883 0,0.02825 0.0094,0.0565 0.01014,0.115156 0.02825,0.169494 0.0475,0.142505 0.357968,0.380038 0.451984,0.53673 0.211248,0.35208 0.275946,0.85396 0.53673,1.158207 0.136328,0.15905 0.286248,0.228498 0.451983,0.338988 0.155788,0.103858 0.312814,0.314889 0.395486,0.480232 0.02663,0.05327 0.02758,0.117434 0.0565,0.169494 0.03829,0.06893 0.127902,0.128424 0.169493,0.197743 0.01532,0.02553 0.01247,0.0595 0.02825,0.08475 0.03196,0.05113 0.08371,0.08854 0.112996,0.141244 0.01885,0.03394 0.01089,0.07827 0.02825,0.112996 0.02382,0.04764 0.08345,0.06867 0.112996,0.112996 0.11305,0.169575 0.215616,0.343986 0.338988,0.508481 0.03759,0.05012 0.05457,0.02632 0.112995,0.08475 0.15873,0.15873 0.248772,0.364502 0.423735,0.451984"
       id="path238" />
    <path
       style="fill:none;stroke:#000000;stroke-width:1px;stroke-linecap:butt;stroke-linejoin:miter;stroke-opacity:1"
       d="m 29.483146,34.197253 c -0.117479,0.347236 0.145117,1.467568 0,1.757803 -0.02663,0.05327 -0.124068,0.03226 -0.1598,0.0799 -0.3114,0.4152 -0.0094,0.107971 -0.0799,0.319601 -0.140171,0.420513 -0.291485,0.846338 -0.399501,1.278402 -0.11623,0.464921 0,1.482613 0,1.997503 0,0.484558 0.2397,0.8919 0.2397,1.438202 0,0.134075 0.317283,0.319601 0.159801,0.319601"
       id="path240" />
    <path
       style="fill:none;stroke:#000000;stroke-width:1px;stroke-linecap:butt;stroke-linejoin:miter;stroke-opacity:1"
       d="m 36.695399,59.379314 c -0.0024,-0.0098 -0.0413,-0.177479 -0.0565,-0.197743 -0.01263,-0.01684 -0.04161,-0.01336 -0.0565,-0.02825 -0.05624,-0.05624 -0.09027,-0.158128 -0.169493,-0.197742 -0.0084,-0.0042 -0.02159,0.0067 -0.02825,0 -2.03e-4,-2.03e-4 -0.03487,-0.08475 -0.0565,-0.08475 -0.03767,0 0,0.07533 0,0.112996 l -3.502864,-0.282486"
       id="path242" />
    <path
       style="fill:none;stroke:#000000;stroke-width:1px;stroke-linecap:butt;stroke-linejoin:miter;stroke-opacity:1"
       d="m 40.789014,52.174782 c -0.02695,-0.04973 0.123256,-0.192939 0.0799,-0.279651 -0.01684,-0.03369 -0.0573,-0.04977 -0.0799,-0.0799 -0.04953,-0.06604 -0.07246,-0.23226 -0.11985,-0.27965 -0.0094,-0.0094 -0.02804,0.006 -0.03995,0 -0.08573,-0.04287 -0.0018,-0.04363 -0.03995,-0.119851 0.09858,-0.120948 -0.108666,-0.06872 -0.11985,-0.0799 -0.01883,-0.01883 0.01191,-0.05608 0,-0.0799 -0.08313,-0.166262 0.0028,0.04271 -0.0799,-0.03995 -0.01883,-0.01883 0.0084,-0.05463 0,-0.0799 -0.03182,-0.09547 -0.07943,-0.118909 -0.11985,-0.19975 -0.01598,-0.03196 0.01598,-0.08789 0,-0.119851 -0.03077,-0.06153 -0.0799,-0.06641 -0.0799,-0.11985"
       id="path244" />
    <path
       style="fill:none;stroke:#000000;stroke-width:1px;stroke-linecap:butt;stroke-linejoin:miter;stroke-opacity:1"
       d="m 37.233458,43.505618 c 0.02699,-0.248838 -0.03802,-0.511907 0,-0.759051 0.03951,-0.256812 0.272853,-0.605213 0.319601,-0.838951 0.009,-0.04522 0.02451,-0.869836 0,-0.918852 -0.01684,-0.03369 -0.06306,-0.04621 -0.0799,-0.0799 -0.01598,-0.03196 0.01598,-0.08789 0,-0.11985 -0.02147,-0.04295 -0.06207,-0.07527 -0.0799,-0.11985 -0.0731,-0.18275 0.0276,-0.48592 0,-0.679151 -0.04762,-0.333375 -0.03995,-0.660873 -0.03995,-0.998752 0,-0.154784 0.03771,-0.368496 0,-0.519351 -0.01739,-0.06957 -0.06251,-0.130179 -0.0799,-0.19975 -0.06971,-0.278856 -0.08798,-0.71056 -0.03995,-0.998752 0.01523,-0.09138 0.03661,-0.233023 0.0799,-0.3196 0.02147,-0.04295 0.06472,-0.0743 0.0799,-0.11985 0.02562,-0.07685 0.02031,-0.161117 0.03995,-0.239701 0.0258,-0.10318 0.104984,-0.215538 0.11985,-0.3196 0.04102,-0.287108 -0.04102,-0.591794 0,-0.878902 0.07765,-0.543555 0.08275,-1.098596 0.1598,-1.637952 0.01027,-0.07191 0.04666,-0.293068 0.0799,-0.359551 0.01685,-0.03369 0.06306,-0.04621 0.0799,-0.0799 0.01191,-0.02382 -0.01191,-0.05608 0,-0.0799 0.0045,-0.009 0.107019,-0.06707 0.11985,-0.0799 0.01883,-0.01883 -0.01191,-0.05608 0,-0.0799 0.02897,-0.05794 0.0799,-0.08354 0.0799,-0.159801"
       id="path246" />
    <path
       style="fill:none;stroke:#000000;stroke-width:1px;stroke-linecap:butt;stroke-linejoin:miter;stroke-opacity:1"
       d="m 46.342072,31.560549 c -0.04205,0.28932 -0.250217,0.52147 -0.3196,0.799002 -0.05494,0.219766 -0.0032,0.543488 0.03995,0.759051 0.02858,0.142893 0,0.333545 0,0.479401 0,0.06952 0.02176,0.174423 0,0.2397 -0.01883,0.0565 -0.06822,0.101403 -0.0799,0.1598 -0.02395,0.119741 -0.0017,0.284642 -0.03995,0.399501 -0.006,0.01787 -0.02663,0.02663 -0.03995,0.03995 -0.01332,0.02663 -0.03273,0.05101 -0.03995,0.0799 -0.01615,0.06459 0.01306,0.13446 0,0.19975 -0.01448,0.07241 -0.06542,0.167295 -0.0799,0.239701 -0.01259,0.06293 0.02005,0.139596 0,0.19975 -0.08012,0.240353 -0.08261,0.658196 -0.119851,0.918851 -0.02578,0.18049 -0.116158,0.344782 -0.1598,0.519351 -0.02064,0.08258 -0.0021,0.203856 -0.03995,0.279651 -0.04937,0.09873 -0.03995,-0.01379 -0.03995,0.0799"
       id="path248" />
    <path
       style="fill:none;stroke:#000000;stroke-width:1px;stroke-linecap:butt;stroke-linejoin:miter;stroke-opacity:1"
       d="M 38.63171,44.424469 36.754057,41.028714"
       id="path250" />
    <path
       style="fill:none;stroke:#000000;stroke-width:1px;stroke-linecap:butt;stroke-linejoin:miter;stroke-opacity:1"
       d="m 37.153558,43.066167 c 0.07248,0.35854 0.2397,0.634038 0.2397,0.998752"
       id="path252" />
    <path
       style="fill:none;stroke:#000000;stroke-width:1px;stroke-linecap:butt;stroke-linejoin:miter;stroke-opacity:1"
       d="m 38.136096,32.655798 c 0.03766,-0.07533 0.07533,-0.150661 0.112996,-0.225992 0.07533,-0.09416 0.167429,-0.177077 0.225992,-0.282489 0.08245,-0.14841 0.115479,-0.402937 0.169493,-0.56498 0.09399,-0.28197 0.321895,-0.496608 0.395486,-0.790971 0.0698,-0.279199 -0.102406,-1.038141 0,-1.242954 0.09251,-0.185029 0.244306,-0.375616 0.338987,-0.564979 0.0565,-0.112996 0.225992,-0.169494 0.28249,-0.28249 0.01684,-0.03369 -0.01684,-0.07931 0,-0.112995 0.0339,-0.0678 0.135595,-0.101697 0.169494,-0.169494 0.06019,-0.120376 -0.06019,0.0074 0,-0.112996 0.12179,-0.24358 0.236277,-0.552158 0.395485,-0.790971 0.0671,-0.100645 0.432859,-0.657976 0.451984,-0.734473 0.0137,-0.05481 -0.0137,-0.114683 0,-0.169494 0.01647,-0.06587 0.09152,-0.105076 0.112995,-0.169493 0.0452,-0.135595 -0.0452,-0.316389 0,-0.451984 0.02948,-0.08842 0.08699,-0.178457 0.112996,-0.282489 0.0091,-0.03654 -0.01938,-0.0807 0,-0.112996 0.135017,-0.225029 0.230654,-0.230654 0.395486,-0.395486 0.14661,-0.14661 0.144415,-0.426905 0.282489,-0.564979 0.04639,-0.04639 0.230772,-0.161344 0.28249,-0.225991 0.06335,-0.07919 0.05674,-0.198106 0.112996,-0.28249 0.09364,-0.140468 0.243878,-0.252821 0.338987,-0.395486 0.08513,-0.127688 0.23493,-0.4223 0.28249,-0.564979 0.03037,-0.0911 0.01867,-0.194226 0.0565,-0.282489 0.169493,-0.395486 0.0565,0.0565 0.169493,-0.169494 0.01684,-0.03369 -0.01684,-0.07931 0,-0.112996 0.01664,-0.03327 0.207266,-0.376759 0.225992,-0.395485 0.01332,-0.01332 0.04318,0.01332 0.0565,0 0.02663,-0.02663 -0.02663,-0.08636 0,-0.112996 0.02978,-0.02978 0.08964,-0.02146 0.112996,-0.0565 0.05419,-0.08129 -0.01323,-0.162881 0.112996,-0.225992 0.01684,-0.0084 0.04318,0.01332 0.0565,0 0.06406,-0.06406 0.100248,-0.224785 0.169493,-0.282489 0.226201,-0.188501 0.526406,-0.300415 0.734473,-0.508482 0.02978,-0.02978 0.02672,-0.08322 0.0565,-0.112996 0.01332,-0.01332 0.04808,0.01685 0.0565,0 0.01685,-0.03369 -0.01684,-0.07931 0,-0.112995 0.005,-0.01008 0.161175,-0.104677 0.169494,-0.112996 0.02663,-0.02663 -0.01684,-0.07931 0,-0.112996 0.02382,-0.04764 0.08917,-0.06535 0.112996,-0.112996 0.01684,-0.03369 -0.01685,-0.07931 0,-0.112996 0.05194,-0.103888 0.09186,-0.317848 0.169494,-0.395485 0.04801,-0.04801 0.121479,-0.06498 0.169493,-0.112996 0.01332,-0.01332 -0.01332,-0.04318 0,-0.0565 0.02162,-0.02161 0.262674,0 0.28249,0 0.25442,0 1.232183,-0.07892 1.468946,0 0.236374,-0.102309 0.06535,0.08917 0.112996,0.112996 0.0479,0.02395 0.303956,-0.0058 0.338987,0 0.117488,0.01958 0.2215,0.09341 0.338988,0.112996 0.08187,0.01365 0.311821,-0.04183 0.395485,0 0.01784,0.0089 0.165791,0.109293 0.169494,0.112996 0.01332,0.01332 -0.01684,0.04808 0,0.0565 0.119108,0.05955 0.271843,0.007 0.395485,0.0565 0.01749,0.007 -0.01332,0.04318 0,0.0565 0.02663,0.02663 0.07726,-0.01191 0.112996,0 0.142585,0.04753 0.269499,0.1504 0.395486,0.225992 0.03551,0.0213 0.265463,0.03947 0.282489,0.0565 0.02663,0.02663 -0.02663,0.08636 0,0.112996 0.02978,0.02978 0.08322,0.02672 0.112996,0.0565 0.220497,0.220496 -0.01308,0.03034 0.0565,0.169493 0.03177,0.06353 0.147186,0.10257 0.169494,0.169494 0.01787,0.0536 -0.02527,0.118961 0,0.169494 0.117565,0.235131 -0.0039,-0.0604 0.112996,0.0565 0.02825,0.02825 -0.02825,0.141245 0,0.169494 0.01332,0.01332 0.04318,-0.01332 0.0565,0 0.116576,0.116576 0.05331,0.448798 0.169493,0.564979 0.01332,0.01332 0.04318,-0.01332 0.0565,0 0.05112,0.05111 -0.0282,0.268485 0,0.338987 0.117976,0.294939 0.222563,0.547835 0.28249,0.847469 0.04373,0.218656 -0.0084,0.477216 -0.0565,0.621477 -0.0084,0.0253 -0.254966,0.198468 -0.28249,0.225992 -0.06353,0.06353 -0.119192,0.207037 -0.169493,0.28249 -0.05699,0.08548 -0.164873,0.1445 -0.225992,0.225991 -0.07849,0.104652 -0.168898,0.281297 -0.225992,0.395486 -0.172265,0.04 -0.02177,0.15654 -0.0565,0.225991 -0.04803,0.09607 -0.123672,0.190847 -0.169493,0.28249 -0.03369,0.06738 0.01827,0.15291 0,0.225992 -0.01485,0.0594 -0.164768,0.160042 -0.169494,0.169493 -0.05266,0.105328 -0.02741,0.335639 -0.0565,0.451984 -0.04267,0.170693 -0.161402,0.290509 -0.225992,0.451983 -0.01399,0.03497 0.01191,0.07726 0,0.112996 -0.03943,0.118304 -0.25888,0.331822 -0.338987,0.451983 -0.06371,0.09556 -0.06068,0.26051 -0.112996,0.338988 -0.103069,0.154603 -0.252558,0.279124 -0.338988,0.451983 -0.05731,0.114629 -0.119295,0.382985 -0.169493,0.508482 -0.02947,0.07366 0.05299,0.285992 0,0.338987 -0.01332,0.01332 -0.04808,-0.01684 -0.0565,0 -0.01684,0.03369 0.0091,0.07645 0,0.112996 -0.01883,0.03767 -0.03767,0.07533 -0.0565,0.112996 -0.01883,0 -0.04605,-0.01567 -0.0565,0 -0.03303,0.04955 -0.02346,0.119942 -0.0565,0.169493 -0.01045,0.01567 -0.04318,-0.01332 -0.0565,0 -0.05012,0.05012 -0.06577,0.211648 -0.112996,0.28249 -0.05011,0.07517 -0.173022,0.116525 -0.225992,0.169494 -0.09891,0.09891 -0.302033,0.435641 -0.338987,0.564979 -0.0056,0.01948 -0.07258,0.548893 -0.0565,0.564979 0.01332,0.01332 0.04318,-0.01332 0.0565,0 0.01145,0.01145 0.01145,0.271038 0,0.28249 -0.07482,0.07482 -0.28249,0.234485 -0.28249,0.338987"
       id="path256" />
    <path
       style="fill:none;stroke:#000000;stroke-width:1px;stroke-linecap:butt;stroke-linejoin:miter;stroke-opacity:1"
       d="m 38.249092,32.429806 c -0.202498,0.269469 -0.169494,0.490848 -0.169494,0.790971"
       id="path258" />
    <path
       style="fill:none;stroke:#000000;stroke-width:1px;stroke-linecap:butt;stroke-linejoin:miter;stroke-opacity:1"
       d="m 79.181835,24.407102 c 0.162976,0.004 0.275393,0.131782 0.367237,0.25424 0.02153,0.02871 0.03468,0.112151 0.0565,0.141245 0.0904,0.120529 0.03202,-0.07345 0.08475,0.08475 0.01758,0.05274 -0.01683,0.0529 0.02825,0.112996 0.01598,0.02131 0.04459,0.03268 0.0565,0.0565 0.03426,0.06852 0.02463,0.222367 0.08475,0.282489 0.0067,0.0067 0.02159,-0.0067 0.02825,0 0.04903,0.04903 0.04617,0.139871 0.08475,0.197743 0.05277,0.07916 0.13334,0.163856 0.169494,0.254241 0.04773,0.119329 -0.06179,-0.0071 0.02825,0.112995 0.04221,0.05628 0.06765,0.04462 0.08475,0.112996 0.02088,0.08353 -0.03177,0.03297 0.02825,0.112996 0.05072,0.06763 0.283834,0.424407 0.338987,0.451983 0.05589,0.02795 0.186293,0.101546 0.225992,0.141245 0.01332,0.01332 -0.01332,0.04318 0,0.0565 0.0067,0.0067 0.02159,-0.0067 0.02825,0 0.09928,0.09928 0.129937,0.254228 0.197742,0.367237 0.02422,0.04037 0.0662,0.06972 0.08475,0.112995 0.01113,0.02597 -0.01263,0.05948 0,0.08475 0.01787,0.03573 0.06125,0.05244 0.08475,0.08475 0.105704,0.145343 0.215562,0.309219 0.310739,0.451984 0.02154,0.03231 0.03496,0.108935 0.0565,0.141244 0.01477,0.02216 0.04459,0.03268 0.0565,0.0565 0.0084,0.01685 -0.0084,0.03965 0,0.0565 0.01191,0.02382 0.04172,0.03434 0.0565,0.0565 0.102156,0.153235 0.183724,0.33205 0.310738,0.480232 0.08247,0.09622 0.16613,0.166131 0.254241,0.254241 0.09752,0.09752 0.142961,0.232234 0.225991,0.338988 0.0327,0.04205 0.0789,0.07207 0.112996,0.112995 0.04044,0.04853 0.04803,0.118093 0.08475,0.169494 0.104126,0.145776 0.06652,0.02004 0.141245,0.169494 0.0055,0.01109 0.167901,0.357682 0.169494,0.367236 0.04063,0.243809 -0.05977,0.523637 0,0.762722 0.01021,0.04085 0.04171,0.07357 0.0565,0.112996 0.04721,0.125884 0.06539,0.281709 0.141244,0.395486 0.0052,0.0078 0.02303,-0.0078 0.02825,0 0.09295,0.139425 0.146862,0.327588 0.197743,0.480232 0.01736,0.05209 0.06435,0.09027 0.08475,0.141245 0.02448,0.0612 -0.0082,0.132337 0,0.197743 0.0052,0.04178 0.04493,0.0725 0.0565,0.112995 0.01319,0.04617 0.01139,0.09629 0.02825,0.141245 0.06744,0.179835 0.193687,0.330876 0.282489,0.508481 0.03778,0.07557 0.06506,0.154091 0.112996,0.225992 0.05399,0.08098 0.12623,0.167713 0.169494,0.254241 0.01964,0.03927 0.0039,0.0925 0.02825,0.141245 0.01518,0.03037 0.04717,0.0521 0.0565,0.08475 0.114938,0.402283 -0.153904,-0.231501 0.02825,0.254241 0.03149,0.08397 0.09439,0.161232 0.112996,0.254241 0.0308,0.154007 0.07152,0.312532 0.141245,0.451983 0.01263,0.02527 -0.0089,0.05795 0,0.08475 0.01966,0.05899 0.07253,0.0962 0.08475,0.169494 0.0103,0.0618 -0.01525,0.136748 0,0.197742 0.04722,0.188889 0.106298,0.507025 0.0565,0.706224 -0.01021,0.04085 -0.04318,0.07305 -0.0565,0.112996 -0.04259,0.127782 0.0079,0.527828 0.02825,0.649726 0.0083,0.05002 0.04933,0.09105 0.0565,0.141245 0.0093,0.06525 -0.01599,0.133797 0,0.197743 0.03978,0.159139 0.108544,0.316725 0.141245,0.480232 0.0074,0.03693 -0.01399,0.07802 0,0.112996 0.01261,0.03152 0.04576,0.05254 0.0565,0.08475 0.02233,0.04346 -0.01489,0.09658 0,0.141245 0.116896,0.350688 -0.0046,-0.187772 0.112996,0.282489 0.01638,0.06552 0,0.158734 0,0.225992 0,0.109525 0.02627,0.262163 0,0.367237 -0.04697,0.187883 -0.106316,0.591698 -0.0565,0.79097 0.0217,0.0868 0.0016,0.202567 0.02825,0.28249 0.06294,0.188812 0.09832,0.581855 0.0565,0.790971 -0.0041,0.02065 -0.02159,0.03652 -0.02825,0.0565 -0.02822,0.08466 0.0217,0.195676 0,0.282489 -0.0032,0.01292 -0.02229,0.01634 -0.02825,0.02825 -0.01263,0.02527 0.0089,0.05795 0,0.08475 -0.02256,0.06767 -0.05927,0.149548 -0.08475,0.225992 -0.0089,0.0268 0.0069,0.05734 0,0.08475 -0.02822,0.112872 -0.02847,4.33e-4 -0.08475,0.112996 -0.02173,0.04346 -0.03801,0.142273 -0.0565,0.197742 -0.04007,0.120198 0,0.319936 0,0.451984"
       id="path260" />
    <path
       style="fill:none;stroke:#000000;stroke-width:1px;stroke-linecap:butt;stroke-linejoin:miter;stroke-opacity:1"
       d="m 82.31747,19.915517 c -0.248701,-0.09068 -0.21752,0.01201 -0.395486,0.0565 -0.01827,0.0046 -0.04083,-0.01045 -0.0565,0 -0.101576,0.06772 0.02825,0.145367 0.02825,0.112996 0,-0.03767 -0.07533,0 -0.112996,0 -0.03332,0 -0.169329,0.112831 -0.197742,0.141244 -0.04422,0.04422 0.0565,0.183064 0.0565,0.141245 0,-0.01332 -0.02825,-0.01493 -0.02825,-0.02825"
       id="path262" />
    <path
       style="fill:none;stroke:#000000;stroke-width:1px;stroke-linecap:butt;stroke-linejoin:miter;stroke-opacity:1"
       d="m 79.012341,24.124612 c 0.0094,0.04708 0.0166,0.09466 0.02825,0.141245 0.07135,0.285416 -0.0102,-0.0204 0.0565,0.112996 0.03105,0.0621 0.0055,0.186103 0.02825,0.25424 0.003,0.0089 0.01883,0 0.02825,0"
       id="path264" />
    <path
       style="fill:none;stroke:#000000;stroke-width:1px;stroke-linecap:butt;stroke-linejoin:miter;stroke-opacity:1"
       d="m 81.837237,20.028513 c 0.130127,0.0485 -0.0023,0.223658 0.0565,0.282489 0.009,0.009 0.144758,-0.167737 0.141245,-0.169493 -0.06489,-0.03244 -0.255772,0.03131 -0.28249,0.08475 -0.0018,0.0035 -0.0099,0.187837 0,0.197743 0.06845,0.06845 0.463815,-0.04925 0.395486,-0.25424 -0.0354,-0.106208 -0.489787,-4.15e-4 -0.451983,0.112995 0.01163,0.03491 0.03139,0.02825 0.0565,0.02825 0.05865,0 0.13341,0.01567 0.169494,-0.0565 0.03598,-0.07196 -0.01576,-0.267384 -0.08475,-0.225991 -0.07444,0.04466 -0.09532,0.176591 -0.0565,0.25424 7.64e-4,0.0015 0.08398,0.0015 0.08475,0 0.0084,-0.01684 0,-0.03767 0,-0.0565 0,-0.222078 -0.160514,0.06389 -0.225991,0.112996 -0.0035,0.0026 -0.09758,-0.01284 -0.0565,0.02825 0.09306,0.09306 0.169493,-0.035 0.169493,-0.112996 0,-0.01883 -0.01332,0.04318 0,0.0565 0.03767,0.03767 0.02825,-0.04708 0.02825,0.02825"
       id="path266" />
    <path
       style="fill:none;stroke:#000000;stroke-width:1px;stroke-linecap:butt;stroke-linejoin:miter;stroke-opacity:1"
       d="m 79.266582,24.604844 c 0.152969,0.142258 -0.518012,-0.692271 -0.451983,-0.593228 0.136002,0.204004 0.308636,0.392543 0.451983,0.593228 z"
       id="path268" />
    <path
       style="fill:none;stroke:#000000;stroke-width:1px;stroke-linecap:butt;stroke-linejoin:miter;stroke-opacity:1"
       d="m 82.119727,20.085011 c -0.04708,0 -0.09416,0 -0.141245,0 -0.106768,0 -0.25,0.01356 -0.338987,0.08475 -0.02274,0.01819 -0.123406,0.187332 -0.08475,0.225991 0.09238,0.09238 -0.01847,-0.300956 0.25424,-0.02825"
       id="path270" />
    <path
       style="fill:none;stroke:#000000;stroke-width:1px;stroke-linecap:butt;stroke-linejoin:miter;stroke-opacity:1"
       d="m 83.447428,19.689525 c 0.127776,0.173029 0.333832,0.277334 0.480232,0.423735 0.0067,0.0067 -0.0084,0.02404 0,0.02825 0.04975,0.02488 0.05432,-0.0022 0.08475,0.02825 0.0184,0.0184 0.04116,0.08999 0.0565,0.112995 0.101597,0.152396 0.0088,-0.01946 0.112996,0.08475 0.0067,0.0067 -0.0067,0.02159 0,0.02825 0.09573,0.09573 0.272483,0.07474 0.367237,0.169494 0.0067,0.0067 -0.0067,0.02159 0,0.02825 0.06942,0.06942 0.172057,0.115559 0.25424,0.197743 0.04784,0.04784 0.03691,0.06515 0.08475,0.112995 0.03487,0.03487 0.175832,0.103625 0.225992,0.141245 0.134757,0.101068 0.35015,0.316207 0.451983,0.451984 0.04655,0.06207 0.05533,0.140078 0.112996,0.197742 0.03946,0.03946 0.127652,0.08267 0.169494,0.141245 0.02448,0.03427 0.03019,0.08011 0.0565,0.112996 0.01315,0.01644 0.04161,0.01336 0.0565,0.02825 0.129008,0.129008 -0.0128,0.0434 0.112995,0.141245 0.0804,0.06253 0.18222,0.09747 0.254241,0.169494 0.08449,0.08449 0.137666,0.21061 0.197743,0.310738 0.09118,0.15196 0.226401,0.198289 0.310738,0.310739 0.03042,0.04057 0.03134,0.09722 0.0565,0.141244 0.0371,0.06492 0.112956,0.127021 0.141245,0.197743 0.01442,0.03605 0.01089,0.07827 0.02825,0.112996 0.04074,0.08148 0.161438,0.217936 0.225992,0.28249 0.01489,0.01489 0.04161,0.01336 0.0565,0.02825 0.09951,0.09951 0.171643,0.218366 0.282489,0.310738 0.05216,0.04347 0.12148,0.06498 0.169494,0.112996 0.04963,0.04963 0.09849,0.126737 0.141245,0.169494 0.124408,0.124408 0.261445,0.226181 0.367236,0.367236 0.0649,0.08653 -0.01807,-0.04632 0.08475,0.0565 0.08356,0.08356 0.105593,0.214888 0.169494,0.310739 0.01477,0.02216 0.04279,0.03366 0.0565,0.0565 0.102018,0.170031 0.1367,0.386397 0.225991,0.564979 0.0421,0.0842 0.11415,0.152199 0.169494,0.225991 0.07379,0.09839 0.12662,0.211167 0.197743,0.310739 0.01548,0.02167 0.04459,0.03268 0.0565,0.0565 0.0084,0.01684 -0.006,0.03863 0,0.0565 1.87e-4,5.61e-4 0.09904,0.176803 0.112996,0.197743 0.01477,0.02216 0.04807,0.03123 0.0565,0.0565 0.02022,0.06065 0.03911,0.202073 0.0565,0.25424 0.02114,0.06342 0.05251,0.07678 0.08475,0.141245 0.04665,0.0933 0.06515,0.240996 0.08475,0.338987 0.02274,0.113678 0.02061,0.01298 0.0565,0.08475 0.04098,0.08196 0.06371,0.170098 0.08475,0.254241 0.01237,0.04949 0.198041,0.339286 0.225992,0.367236 0.0067,0.0067 0.02159,-0.0067 0.02825,0 0.110248,0.110249 -0.0065,0.01517 0.02825,0.08475 0.04643,0.09286 0.130242,0.198115 0.197742,0.28249 0.05252,0.06565 0.152268,0.09577 0.197743,0.141245 0.0084,0.0084 -9.09e-4,0.109359 0,0.112996 0.01021,0.04085 0.04318,0.07305 0.0565,0.112995 0.01656,0.04969 -0.0086,0.11799 0,0.169494 0.02824,0.169449 0.122349,0.329445 0.197743,0.480233 0.03745,0.0749 -0.0077,0.290079 0,0.367236 0.06036,0.603587 -0.01588,-0.170349 0.08475,0.28249 0.02769,0.124604 0.0092,0.241084 0.0565,0.367236 0.05573,0.148622 0.174811,0.291353 0.25424,0.423734 0.01532,0.02553 0.01094,0.06052 0.02825,0.08475 0.09035,0.126484 0.232884,0.198849 0.310739,0.338988 0.01805,0.03248 0.09813,0.237907 0.112996,0.282489 0.05847,0.175411 -0.02974,0.547167 -0.0565,0.734473 -0.03443,0.241035 0.06793,0.442486 0.08475,0.677975 0.0074,0.103317 -0.01465,0.208201 0,0.310739 0.01865,0.130539 0.149298,0.270348 0.197742,0.367237 0.02147,0.04294 -0.0057,0.107293 0.02825,0.141244 0.0067,0.0067 0.02278,-0.0077 0.02825,0 0.182257,0.25516 0.04665,0.191526 0.112996,0.423735 0.0471,0.164839 0.0565,0.119683 0.0565,0.282489"
       id="path272" />
    <path
       style="fill:none;stroke:#000000;stroke-width:1px;stroke-linecap:butt;stroke-linejoin:miter;stroke-opacity:1"
       d="m 90.763909,37.288627 1.412448,-2.740149"
       id="path274" />
    <path
       style="fill:none;stroke:#000000;stroke-width:1px;stroke-linecap:butt;stroke-linejoin:miter;stroke-opacity:1"
       d="m 92.148108,33.107781 c -0.04339,0.09671 0.06019,0.09214 0.08475,0.141245 0.02303,0.04606 0.04139,0.41784 0.0565,0.508481 0.03259,0.195546 0.09833,0.471817 0.169493,0.649726 0.03543,0.08858 0.111071,0.163719 0.141245,0.254241 0.01785,0.05354 0.0092,0.112308 0.02825,0.169494 0.05167,0.155018 -0.02618,0.751035 0,0.960464 0.03089,0.247154 0.116653,0.488551 0.141245,0.734473 0.035,0.349959 -0.05778,0.726806 0,1.073461 0.04321,0.259281 0.06519,0.645345 0.02825,0.903967 -0.0172,0.120382 -0.0086,0.249314 -0.02825,0.367236 -0.007,0.04207 -0.08066,0.2117 -0.08475,0.225992 -0.01747,0.06113 0.0054,0.166872 0,0.225991 -0.01384,0.152271 -0.04139,0.300953 -0.0565,0.451984 -0.03356,0.335636 0.02404,0.680372 0,1.016962 -0.04383,0.613576 -0.0043,-0.02617 -0.0565,0.338988 -0.01565,0.109521 0.02168,0.230615 0,0.338987 -0.01993,0.09963 -0.06126,0.188549 -0.08475,0.28249 -0.0046,0.01827 0,0.03766 0,0.0565 -0.0094,0.04708 -0.01506,0.09508 -0.02825,0.141245 -0.03501,0.122534 -0.13038,0.209695 -0.197742,0.310738 -0.101046,0.151569 -0.10166,0.18708 -0.197743,0.367237 -0.03767,0.06591 -0.07533,0.131828 -0.112996,0.197742 -0.01883,0.0094 -0.04387,0.0114 -0.0565,0.02825 -0.07228,0.09637 -0.200722,0.451269 -0.225992,0.56498 -0.0061,0.02758 0.0046,0.05688 0,0.08475 -0.0066,0.03952 -0.04991,0.101728 -0.0565,0.141244 -0.02587,0.155202 0.03083,0.326087 0,0.480233 -0.0026,0.01306 -0.01883,0.01883 -0.02825,0.02825 0,0.01883 0,0.03766 0,0.0565 0,0.164106 0.03902,0.380654 0,0.53673 -0.0123,0.04919 -0.04655,0.09152 -0.0565,0.141245 -0.0055,0.0277 0.0089,0.05795 0,0.08475 -0.003,0.0089 -0.02527,-0.0089 -0.02825,0 -0.0089,0.0268 0.01049,0.05852 0,0.08475 -0.0099,0.02473 -0.04661,0.03177 -0.0565,0.0565 -0.01049,0.02623 0.0055,0.05705 0,0.08475 -0.01652,0.08261 -0.05512,0.168116 -0.112996,0.225992"
       id="path276" />
    <path
       style="fill:none;stroke:#000000;stroke-width:1px;stroke-linecap:butt;stroke-linejoin:miter;stroke-opacity:1"
       d="m 84.74688,41.864959 c -0.01512,0.14447 -0.06665,0.278977 -0.08475,0.423734 -0.0076,0.06107 -0.04339,0.602831 -0.08475,0.706224 -0.01564,0.0391 -0.04318,0.07305 -0.0565,0.112996 -0.02001,0.06002 0.0115,0.168491 0,0.225992 -0.01507,0.07533 -0.109324,0.218648 -0.141245,0.282489 -0.04549,0.09098 -0.06695,0.190394 -0.112996,0.28249 -0.06189,0.123778 -0.167162,0.257874 -0.197743,0.395485 -0.0082,0.03677 0.0047,0.07562 0,0.112996 -0.01009,0.08071 -0.04464,0.126618 -0.0565,0.197743 -0.02795,0.167675 -0.003,0.348062 -0.0565,0.508481 0.01056,0.06154 -0.04708,0.0094 -0.0565,0.02825 -0.0084,0.01685 0.0113,0.04143 0,0.0565 -0.02037,0.02716 -0.06074,0.03249 -0.08475,0.0565 -0.05423,0.05423 -0.125792,0.132189 -0.169494,0.197743 -0.126518,0.189776 -0.274241,0.362905 -0.395486,0.564979 -0.04778,0.07963 -0.01915,0.05745 -0.0565,0.169494 -0.02943,0.0883 -0.09229,0.161078 -0.112995,0.25424 -0.05968,0.268564 -0.137531,0.560028 -0.310739,0.790971 -0.153296,0.204395 -0.38874,0.325317 -0.53673,0.536731 -0.01708,0.02439 -0.01493,0.05811 -0.02825,0.08475 -0.117707,0.235414 -0.12523,0.339434 -0.197743,0.593229 -0.01157,0.04049 -0.04318,0.07305 -0.0565,0.112995 -0.0089,0.0268 0.0069,0.05734 0,0.08475 -0.02525,0.100988 -0.07376,0.254631 -0.141245,0.338988 -0.01315,0.01644 -0.04161,0.01336 -0.0565,0.02825 -0.131038,0.131039 -0.243006,0.281126 -0.395485,0.395485 -0.103222,0.07742 -0.21793,0.133184 -0.310739,0.225992 -0.135812,0.135812 -0.248156,0.303133 -0.367236,0.451983 -0.08825,0.110307 -0.187598,0.261108 -0.225992,0.395486 -0.01574,0.05507 -0.007,0.116313 -0.02825,0.169493 -0.04103,0.102565 -0.171773,0.36162 -0.225991,0.451984 -0.07557,0.125943 -0.366526,0.564624 -0.480233,0.621477 -0.01684,0.0084 -0.03965,-0.0084 -0.0565,0 -0.01998,0.01 -0.162509,0.104266 -0.169493,0.112996 -0.190073,0.237591 -0.246278,0.367236 -0.56498,0.367236"
       id="path278" />
    <path
       style="fill:none;stroke:#000000;stroke-width:1px;stroke-linecap:butt;stroke-linejoin:miter;stroke-opacity:1"
       d="m 91.667875,45.198336 c -0.0523,0.258452 -0.187295,0.503017 -0.310738,0.734473 -0.06391,0.119827 -0.165258,0.217521 -0.225992,0.338988 -0.08443,0.168867 -0.138739,0.354479 -0.25424,0.508481 -0.04746,0.06328 -0.122036,0.106216 -0.169494,0.169494 -0.15273,0.203639 -0.254935,0.4389 -0.395486,0.649726 -0.156016,0.234024 -0.02589,-0.0212 -0.225991,0.338987 -0.200293,0.360528 -0.362053,0.740951 -0.564979,1.10171 -0.145482,0.258633 -0.264519,0.540774 -0.423735,0.790971 -0.08766,0.137759 -0.220661,0.312332 -0.254241,0.480232 -0.04456,0.222815 -8.55e-4,0.430579 -0.02825,0.649726 -0.01233,0.09864 -0.07246,0.212413 -0.08475,0.310739 -0.04692,0.375325 0.05333,0.401812 -0.141245,0.79097 -0.01191,0.02382 -0.04102,0.03483 -0.0565,0.0565 -0.07645,0.107035 -0.113332,0.209446 -0.197743,0.310739 -0.217985,0.261582 -0.553219,0.411975 -0.790971,0.649726 -0.113387,0.113388 -0.202383,0.249031 -0.310738,0.367236 -0.200154,0.21835 -0.377113,0.427148 -0.536731,0.677976 -0.137844,0.216613 -0.333482,0.436425 -0.451983,0.649726 -0.06926,0.124665 -0.0561,0.310202 -0.141245,0.423734 -0.01263,0.01684 -0.04334,0.01181 -0.0565,0.02825 -0.0686,0.08575 -0.124053,0.18252 -0.169493,0.28249 -0.01987,0.04371 -0.01307,0.09569 -0.02825,0.141244 -0.02268,0.06803 -0.06627,0.128452 -0.08475,0.197743 -0.02492,0.09343 -0.014,0.239835 -0.0565,0.338988 -0.06158,0.143673 -0.0401,0.0319 -0.112996,0.141244 -0.07868,0.118026 -0.1229,0.283222 -0.197743,0.395486 -0.06915,0.103723 -0.145087,0.213653 -0.225991,0.310738 -0.06875,0.0825 -0.126284,0.09804 -0.197743,0.169494 -0.04952,0.04952 -0.07051,0.141095 -0.112996,0.197743 -0.0476,0.06346 -0.09577,0.08475 -0.169494,0.08475 -0.02825,0 -0.112996,0 -0.08475,0 0.01883,0 0.03767,0 0.0565,0"
       id="path280" />
    <path
       style="fill:none;stroke:#000000;stroke-width:1px;stroke-linecap:butt;stroke-linejoin:miter;stroke-opacity:1"
       d="m 83.108441,19.661276 c 0.266383,0.09748 0.720539,0.05462 0.960464,0.225992 0.04335,0.03096 0.0714,0.07972 0.112996,0.112996 0.167803,0.134242 0.2978,0.187177 0.367237,0.395485 0.02951,0.08854 -0.0024,0.308347 0.02825,0.338988 0.01332,0.01332 0.03767,0 0.0565,0"
       id="path282" />
    <path
       style="fill:none;stroke:#000000;stroke-width:1px;stroke-linecap:butt;stroke-linejoin:miter;stroke-opacity:1"
       d="m 92.797834,17.683849 c 0.171065,0.144401 0.271425,0.345107 0.367236,0.53673 0.0186,0.03721 0.06614,0.07579 0.08475,0.112996 0.03549,0.07098 0.03805,0.155942 0.08475,0.225992 0.05731,0.08597 0.158625,0.158624 0.225992,0.225991 0.148983,0.148984 0.271017,0.519521 0.395485,0.706224 0.124974,0.187462 0.251188,0.391822 0.395486,0.56498 0.142263,0.170716 0.287114,0.337706 0.423734,0.508481 0.02496,0.0312 0.06419,0.05049 0.08475,0.08475 0.0097,0.01615 -0.0113,0.04143 0,0.0565 0.02037,0.02716 0.06301,0.03042 0.08475,0.0565 0.02696,0.03235 0.03202,0.07873 0.0565,0.112996 0.124126,0.173776 0.260706,0.322054 0.367236,0.508481 0.05921,0.103615 0.116681,0.261609 0.169494,0.367236 0.150745,0.301491 0.302091,0.604182 0.451983,0.903967 0.02723,0.05446 0.08127,0.116615 0.112996,0.169494 0.07509,0.12515 0.09909,0.272278 0.169494,0.395485 0.13821,0.241868 0.04281,-0.03422 0.169494,0.28249 0.01442,0.03605 0.01089,0.07827 0.02825,0.112996 0.01191,0.02382 0.04661,0.03177 0.0565,0.0565 0.01049,0.02623 -0.01049,0.05852 0,0.08475 0.0099,0.02473 0.04601,0.03202 0.0565,0.0565 0.238172,0.555737 -0.200785,-0.288573 0.08475,0.28249 0.01518,0.03037 0.04458,0.05296 0.0565,0.08475 0.0856,0.228257 0.129241,0.480471 0.225992,0.706224 0.01337,0.03121 0.04458,0.05296 0.0565,0.08475 0.03372,0.08991 0.0289,0.190511 0.0565,0.282489 0.03406,0.113525 0.06885,0.256868 0.112996,0.367237 0.05799,0.14498 0.0046,-0.198323 0.0565,0.112996 0.0046,0.02786 -0.0089,0.05795 0,0.08475 0.02511,0.07532 0.09499,0.111681 0.141244,0.169493 0.04727,0.05909 0.09397,0.110402 0.141245,0.169494 0.02631,0.03288 0.02672,0.08322 0.0565,0.112996 0.09157,0.09157 0.250787,0.162585 0.310739,0.282489 0.0084,0.01685 -0.007,0.03901 0,0.0565 0.0752,0.188007 0.226399,0.353995 0.310738,0.536731 0.07372,0.15972 0.08313,0.342446 0.141245,0.508481 0.09483,0.270949 0.221941,0.528525 0.254241,0.81922 0.02395,0.215526 0.02098,0.436607 0.0565,0.649726 0.02082,0.124929 0.06197,0.28068 0.112995,0.395485 0.01379,0.03102 0.04458,0.05296 0.0565,0.08475 0.01686,0.04496 0.01307,0.09569 0.02825,0.141245 0.01332,0.03995 0.04493,0.0725 0.0565,0.112996 0.0078,0.02716 -0.0081,0.05769 0,0.08475 0.04121,0.137376 0.105352,0.267202 0.169494,0.395485 0.03395,0.0679 0.08705,0.126397 0.112996,0.197743 0.01287,0.0354 -0.0082,0.07623 0,0.112996 0.011,0.0495 0.04046,0.09314 0.0565,0.141244 0.05051,0.151535 0.06527,0.296202 0.08475,0.451984 0.0085,0.06802 0.04893,0.12961 0.0565,0.197743 0.0236,0.212421 -0.0013,0.40959 0.0565,0.621477 0.17983,0.659376 0.343817,1.321519 0.536731,1.977427 0.05624,0.191233 0.14299,0.373354 0.19774,0.564979 0.0188,0.06591 0.0452,0.130124 0.0565,0.197743 0.0285,0.171008 -0.0754,0.489537 0.0565,0.621477"
       id="path286" />
    <path
       style="fill:none;stroke:#000000;stroke-width:1.05479px;stroke-linecap:butt;stroke-linejoin:miter;stroke-opacity:1"
       d="m 99.311563,13.163785 c -0.155296,-0.02088 -0.209409,-0.142499 -0.322894,-0.181478 -0.133275,-0.04577 -0.278733,0.0038 -0.410956,-0.03025 -0.07946,0.0514 -0.0759,-0.04623 -0.117416,-0.06049 -0.113186,-0.03887 -0.262448,0.02046 -0.3816,0 -0.09769,-0.01678 -0.155297,-0.06342 -0.234833,-0.09074 -0.04789,-0.01645 -0.443423,-0.0417 -0.499017,-0.03025 -0.170956,0.03523 -0.855093,0.07463 -1.027389,0.03025 -0.191788,-0.0494 -0.959439,-0.06287 -1.086098,-0.03025 -0.04245,0.01093 -0.07496,0.04957 -0.117416,0.06049 -0.11004,0.02835 -0.212852,0.06239 -0.322894,0.09074 -0.110914,0.02857 -0.244134,0.02337 -0.352246,0.06049 -0.104546,0.03591 -0.221091,0.08602 -0.322895,0.120985 -0.128629,0.04418 -0.138088,0.25262 -0.176125,0.272216 -0.0175,0.009 -0.04014,-0.0064 -0.05871,0 -0.04678,0.01605 -0.09207,0.07665 -0.14677,0.09074 -0.01898,0.005 -0.0412,-0.009 -0.05871,0 -0.0087,0.0045 0.007,0.02312 0,0.03025 -0.0214,0.02205 -0.117819,4.13e-4 -0.146771,0.03025 -0.02494,0.02571 -0.03375,0.06504 -0.05871,0.09074 -0.02446,0.0252 -0.193083,0.132073 -0.205478,0.151231 -0.09769,0.150984 -0.141563,0.36637 -0.176124,0.544429 -0.0081,0.042 0.01223,0.113423 0,0.151231 -0.105247,0.325336 -0.01851,-0.02232 -0.08807,0.120985 -0.0044,0.009 0,0.02016 0,0.03025 -0.0098,0.03025 -0.01219,0.06421 -0.02935,0.09074 -0.0054,0.0084 -0.02244,-0.0072 -0.02935,0 -0.02853,0.02939 -0.0166,0.08155 -0.02935,0.120983 -0.09036,0.279358 -0.08807,0.551887 -0.08807,0.846892 0,0.243335 -0.04358,0.682891 0,0.907382 0.02223,0.114532 0.119627,0.570118 0.05871,0.695661 -0.03917,0.08072 -0.114036,0.15297 0,0.211721"
       id="path288" />
    <path
       style="fill:none;stroke:#000000;stroke-width:1px;stroke-linecap:butt;stroke-linejoin:miter;stroke-opacity:1"
       d="m 92.62834,17.062372 c 0.110546,0.242793 0.480232,0.602915 0.480232,0.875718"
       id="path290" />
    <path
       style="fill:none;stroke:#000000;stroke-width:1px;stroke-linecap:butt;stroke-linejoin:miter;stroke-opacity:1"
       d="m 99.182099,13.644248 c 0.06895,0.04918 0.05344,0.163375 0.08475,0.225991 0.04993,0.09987 0.137455,0.163809 0.197742,0.254241 0.05947,0.0892 0.09348,0.186961 0.141245,0.28249 0.0192,0.0384 0.06555,0.0746 0.08475,0.112995 0.02354,0.04708 0.03442,0.125331 0.0565,0.169494 0.01191,0.02382 0.04459,0.03268 0.0565,0.0565 0.01736,0.03473 0.01295,0.07731 0.02825,0.112996 0.03346,0.07807 0.107784,0.147918 0.141245,0.225992 0.0074,0.01731 -0.006,0.03863 0,0.0565 0.05548,0.166454 0.176909,0.291764 0.282489,0.423734 0.0956,0.119516 0.11524,0.299977 0.19774,0.423734 0.0222,0.03324 0.0598,0.05355 0.0847,0.08475 0.0736,0.09204 0.10714,0.217209 0.16949,0.310739 0.0165,0.0247 0.10749,0.136651 0.113,0.141245 0.0324,0.02696 0.0806,0.02954 0.11299,0.0565 0.0261,0.02173 0.0353,0.05823 0.0565,0.08475 0.15716,0.196445 0.34698,0.371176 0.50848,0.56498 0.11763,0.141153 0.16187,0.354524 0.25424,0.508481 0.0137,0.02284 0.0417,0.03434 0.0565,0.0565 0.11987,0.179804 0.17142,0.408106 0.28249,0.593228 0.0463,0.07715 0.0682,0.08 0.113,0.169494 0.0174,0.03472 0.0125,0.07752 0.0282,0.112996 0.0394,0.08859 0.1072,0.163466 0.14124,0.25424 0.0472,0.12586 0.0714,0.270753 0.113,0.395486 0.0361,0.108283 0.1,0.207578 0.14124,0.310738 0.0499,0.12483 0.0381,0.222375 0.0848,0.338988 0.005,0.01236 0.0188,0.01883 0.0282,0.02825 0.0282,0.0565 0.0648,0.109568 0.0847,0.169494 0.009,0.0268 -0.007,0.05734 0,0.08475 0.0114,0.04568 0.0637,0.07089 0.0847,0.112996 0.0251,0.0502 0.0363,0.118985 0.0565,0.169494 0.0126,0.03158 0.13317,0.185635 0.14124,0.197743 0.0305,0.04568 0.0644,0.09027 0.0847,0.141245 0.007,0.01749 -0.0113,0.04143 0,0.0565 0.0204,0.02716 0.0594,0.03394 0.0847,0.0565 0.0597,0.05308 0.11641,0.109776 0.16949,0.169494 0.15219,0.171213 0.28576,0.352756 0.42374,0.53673 0.0212,0.02825 0.0706,0.0565 0.0847,0.08475 0.008,0.01685 -0.007,0.03901 0,0.0565 0.0811,0.202713 0.22198,0.381421 0.28249,0.593228 0.0448,0.156823 0.0573,0.327024 0.113,0.480233 0.0188,0.0516 0.065,0.09 0.0847,0.141244 0.17692,0.460002 -0.0692,0.0028 0.14124,0.423735 0.1041,0.20819 0.23683,0.376618 0.36724,0.564979 0.0432,0.06242 0.0689,0.135967 0.11299,0.197743 0.11895,0.166525 0.23187,0.271854 0.28249,0.423734 0.0166,0.04987 0,0.182397 0,0.225992 0,0.164779 -0.0378,0.743349 0,0.875718 0.0489,0.171082 0.14881,0.337202 0.19774,0.508481 0.0207,0.07237 0.0158,0.151102 0.0282,0.225992 0.0133,0.07971 0.0742,0.151851 0.0847,0.225991 0.007,0.04661 -0.008,0.09492 0,0.141245 0.11021,0.606159 0.001,-0.164293 0.113,0.28249 0.009,0.03654 -0.009,0.07645 0,0.112995 0.0195,0.07805 0.0538,0.151728 0.0847,0.225992 0.0707,0.169774 0.16057,0.376139 0.25424,0.53673 0.0778,0.133285 0.18288,0.244588 0.226,0.395486 0.0286,0.100128 0.0293,0.215489 0.0565,0.310738 0.0174,0.06074 0.0724,0.107554 0.0847,0.169494 0.0287,0.143461 -0.007,0.312036 0.0282,0.451984 0.0544,0.217553 0.2079,0.41844 0.33899,0.593228 0.0627,0.08354 0.0591,0.256836 0.11299,0.310738"
       id="path292" />
    <path
       style="fill:none;stroke:#000000;stroke-width:1px;stroke-linecap:butt;stroke-linejoin:miter;stroke-opacity:1"
       d="m 107.09181,30.254636 c 0.0374,0.209072 -0.0416,0.441494 0,0.649726 0.008,0.04129 0.0505,0.07131 0.0565,0.112996 0.027,0.188937 -0.009,0.377035 0.0282,0.564979 0.0311,0.155361 -0.003,0.323474 0.0282,0.480233 0.0348,0.174133 0.1581,0.321811 0.226,0.480232 0.0767,0.04439 0.007,0.116313 0.0282,0.169494 0.035,0.08762 0.11049,0.161949 0.14125,0.25424 0.0421,0.126438 0.11833,0.219608 0.16949,0.338988 0.0153,0.03569 0.013,0.07731 0.0282,0.112996 0.0432,0.100827 0.1276,0.17776 0.1695,0.282489 0.0214,0.05362 0.004,0.148692 0.0282,0.197743 0.0119,0.02382 0.0466,0.03177 0.0565,0.0565 0.0245,0.0612 -0.0108,0.132725 0,0.197743 0.003,0.02077 0.0188,0.03766 0.0283,0.0565 0.009,0.04708 0.0223,0.0936 0.0282,0.141244 0.021,0.168052 0.007,0.340348 0.0282,0.508482 0.0197,0.157614 -0.0197,0.322617 0,0.480232 0.0206,0.164462 0.0804,0.317135 0.113,0.480232 0.0586,0.293137 0.11181,0.581421 0.14124,0.875718 0.0303,0.303114 -0.0479,0.580601 -0.0847,0.875718 -0.0273,0.218596 0,0.456958 0,0.677975 0,0.414318 0,0.828636 0,1.242954 0,0.203765 0.0156,0.418741 0,0.621477 -0.016,0.208305 -0.0282,0.409897 -0.0282,0.621477 0,0.298564 -0.0371,0.635682 0,0.932216 0.0273,0.218731 0.047,0.452843 0.0282,0.677975 -0.026,0.312502 -0.13653,0.626152 -0.19774,0.932216 -0.0149,0.07444 -0.01,0.152341 -0.0282,0.225992 -0.0102,0.04085 -0.0444,0.07266 -0.0565,0.112995 -0.0159,0.05288 -0.034,0.250781 -0.0565,0.310739 -0.0119,0.03179 -0.0413,0.05438 -0.0565,0.08475 -0.15869,0.317368 0.0131,0.0059 -0.0847,0.225991 -0.11068,0.249037 -0.24443,0.507895 -0.39548,0.734473 -0.0614,0.09203 -0.22621,0.263935 -0.28249,0.338988 -0.19393,0.258569 0.053,0.03175 -0.25425,0.338987 -0.13343,0.133439 -0.21646,0.197413 -0.28248,0.395486 -0.0383,0.114954 -0.055,0.483263 0,0.593228 0.0652,0.130474 0.17454,0.230037 0.22599,0.367237 0.0528,0.140814 0.14039,0.306488 0.16949,0.451983 0.0611,0.305241 0.0847,0.593946 0.0847,0.903967 0,0.04724 0.009,0.207934 0,0.25424 -0.003,0.01306 -0.0223,0.01634 -0.0282,0.02825 -0.0395,0.07904 -0.0482,0.173749 -0.0847,0.254241 0.01,0.142331 -0.14271,0.228922 -0.19774,0.338987 -0.0174,0.03473 -0.0146,0.07664 -0.0282,0.112996 -0.0481,0.128172 -0.15074,0.254352 -0.22599,0.367237 -0.0815,0.122308 -0.20157,0.198537 -0.25424,0.338987 -0.0339,0.09028 -0.008,0.143703 -0.0282,0.225992 -0.0551,0.220603 -0.0282,0.472655 -0.0282,0.706224"
       id="path294" />
    <path
       style="fill:none;stroke:#000000;stroke-width:1px;stroke-linecap:butt;stroke-linejoin:miter;stroke-opacity:1"
       d="m 108.05227,44.972344 c 0.0297,0.329643 -0.0216,0.644726 -0.0847,0.960465 -0.0105,0.05231 0.0157,0.08632 0,0.141245 -0.0303,0.105933 -0.18178,0.437238 -0.226,0.53673 -0.0399,0.08982 -0.12714,0.16954 -0.16949,0.254241 -0.0548,0.109675 -0.10526,0.250301 -0.14124,0.367236 -0.0657,0.213395 -0.12651,0.456876 -0.14125,0.677975 -0.0149,0.223426 -0.009,0.38026 -0.0565,0.593228 -0.0417,0.187746 -0.12598,0.398293 -0.22599,0.56498 -0.0423,0.07047 -0.10806,0.148572 -0.14124,0.225991 -0.0306,0.07137 -0.0319,0.152328 -0.0565,0.225992 -0.0533,0.159951 -0.0812,0.320021 -0.14125,0.480232 -0.0148,0.03943 -0.0454,0.07237 -0.0565,0.112996 -0.0334,0.122589 -0.0219,0.274257 -0.0565,0.395486 -0.0433,0.15165 -0.0953,0.292875 -0.113,0.451983 -0.0206,0.185056 0.0489,0.450466 0,0.621477 -0.0918,0.321119 -0.0127,0.0614 -0.0847,0.169494 -0.0528,0.07925 -0.0483,0.173416 -0.11299,0.254241 -0.0897,0.112147 -0.20266,0.219238 -0.28249,0.338987 -0.0327,0.04908 -0.052,0.148664 -0.0847,0.197743 -0.0222,0.03324 -0.069,0.04803 -0.0847,0.08475 -0.0148,0.03462 0.004,0.07556 0,0.112995 -0.0252,0.227112 0.0139,0.523341 -0.0565,0.734473 -0.0782,0.23471 -0.60933,0.545542 -0.76272,0.790971 -0.0958,0.153322 -0.15528,0.338623 -0.19775,0.508482 -0.051,0.203918 -0.15545,0.395719 -0.22599,0.593228 -0.0531,0.148762 -0.0826,0.3053 -0.14124,0.451983 -0.0334,0.08351 -0.0981,0.148236 -0.14125,0.225992 -0.12847,0.23125 -0.28608,0.437291 -0.39548,0.677975 -0.0261,0.0575 -0.0681,0.108553 -0.0847,0.169494 -0.0124,0.04542 0,0.09416 0,0.141244 -0.009,0.04708 -0.0131,0.09569 -0.0282,0.141245 -0.0133,0.03995 -0.0432,0.07305 -0.0565,0.112996 -0.0201,0.06037 0.003,0.173687 -0.0282,0.225992 -0.0206,0.03426 -0.0626,0.05151 -0.0847,0.08475 -0.0446,0.06694 -0.0421,0.157767 -0.0847,0.225991 -0.0287,0.04586 -0.18911,0.22351 -0.22599,0.254241 -0.0229,0.01906 -0.0605,0.01094 -0.0847,0.02825 -0.13995,0.09997 -0.58541,0.554552 -0.67797,0.677975 -0.051,0.06799 -0.0991,0.162835 -0.14125,0.225992 0.0697,0.08552 -0.0768,0.04859 -0.0847,0.0565 -0.10285,0.102856 -0.20275,0.312581 -0.22599,0.451983 -10e-4,0.0063 -0.0402,0.395485 -0.0282,0.395485 0.009,0 0,-0.01883 0,-0.02825"
       id="path296" />
    <path
       style="fill:none;stroke:#000000;stroke-width:1px;stroke-linecap:butt;stroke-linejoin:miter;stroke-opacity:1"
       d="m 102.28948,59.20982 c -0.0193,0.158016 -0.14917,0.278025 -0.19774,0.423735 -0.0181,0.05434 -0.0132,0.114234 -0.0282,0.169493 -0.0588,0.215435 -0.0402,0.07238 -0.14124,0.254241 -0.0493,0.08865 -0.0676,0.19178 -0.113,0.28249 -0.0519,0.103765 -0.0861,0.100437 -0.16949,0.197742 -0.0221,0.02578 -0.03,0.06354 -0.0565,0.08475 -0.0232,0.0186 -0.0637,0.0072 -0.0847,0.02825 -0.0298,0.02978 -0.0342,0.07729 -0.0565,0.112996 -0.0977,0.15634 -0.24184,0.241834 -0.36724,0.367237 -0.0149,0.01489 -0.0118,0.04334 -0.0282,0.0565 -0.0329,0.02631 -0.0787,0.03202 -0.113,0.0565 -0.2661,0.190075 -0.48821,0.434248 -0.73447,0.649727 -0.0256,0.02236 -0.0624,0.03095 -0.0847,0.0565 -0.437247,0.499716 0.13447,-0.08663 -0.197738,0.28249 -0.119929,0.133254 -0.28745,0.251437 -0.395486,0.395486 -0.04198,0.05598 -0.08219,0.186622 -0.141244,0.225991 -0.01567,0.01045 -0.03767,0 -0.0565,0 -0.02825,0.01883 -0.06074,0.03249 -0.08475,0.0565 -0.0067,0.0067 0.0042,0.01983 0,0.02825 -0.02163,0.04327 -0.05034,0.02209 -0.08475,0.0565 -0.242081,0.242081 -0.452723,0.528721 -0.706224,0.762722 -0.07355,0.06789 -0.162607,0.120272 -0.225992,0.197743 -0.02458,0.03005 -0.009,0.07929 -0.02825,0.112995 -0.02754,0.0482 -0.116034,0.116035 -0.141245,0.141245 -0.02255,0.02255 0.01482,0.111608 0,0.141245 -0.01716,0.03433 -0.120161,0.141245 -0.141244,0.141245"
       id="path298" />
    <path
       style="fill:none;stroke:#000000;stroke-width:1px;stroke-linecap:butt;stroke-linejoin:miter;stroke-opacity:1"
       d="m 98.108638,64.435878 c -0.113092,0.0049 -0.231123,0.0013 -0.338987,0.02825 -0.03876,0.0097 -0.05279,0.06078 -0.08475,0.08475 -0.05061,0.03795 -0.224858,0.122034 -0.28249,0.141245 -0.04782,0.01594 -0.276978,0 -0.282489,0 -0.253283,0 -0.540648,-0.03576 -0.790971,0 -0.0868,0.0124 -0.168178,0.06753 -0.254241,0.08475 -0.03693,0.0074 -0.07726,-0.01191 -0.112996,0 -0.05815,0.01938 -0.131174,0.0681 -0.197742,0.08475 -0.0895,0.02238 -0.154283,-0.0051 -0.254241,0.02825 -0.01263,0.0042 -0.01533,0.02502 -0.02825,0.02825 -0.02741,0.0069 -0.05852,-0.01049 -0.08475,0 -0.02473,0.0099 -0.03268,0.04459 -0.0565,0.0565 -0.209127,0.104564 -0.448784,0.112996 -0.677975,0.112996 -0.0565,0 -0.115895,0.01787 -0.169494,0 -0.08077,0.05136 -0.09718,-0.06271 -0.141244,-0.08475 -0.04536,-0.02268 -0.09249,-0.04257 -0.141245,-0.0565 -0.01811,-0.0052 -0.04035,0.0097 -0.0565,0 -0.03426,-0.02055 -0.05006,-0.06493 -0.08475,-0.08475 -0.03371,-0.01926 -0.0814,-0.0057 -0.112996,-0.02825 -0.12761,-0.09115 -0.204168,-0.288915 -0.310738,-0.395485 -0.02401,-0.02401 -0.05824,-0.03529 -0.08475,-0.0565 -0.139775,-0.11182 0.03383,0.0056 -0.112996,-0.141245 -0.0067,-0.0067 -0.02159,0.0067 -0.02825,0 -0.0571,-0.0571 -0.09829,-0.150273 -0.169494,-0.197742 -0.134365,-0.08958 -0.04838,0.03384 -0.25424,-0.197743 -0.12482,-0.140422 -0.15218,-0.35539 -0.254241,-0.508481 -0.02216,-0.03324 -0.06078,-0.05279 -0.08475,-0.08475 -0.02297,-0.03063 -0.03891,-0.134315 -0.0565,-0.169494 -0.103477,-0.206954 -0.216028,-0.417112 -0.282489,-0.649726 -0.04113,-0.143945 0,-0.548059 0,-0.706224 0,-0.126099 -0.04096,-0.413854 0,-0.53673 0.0405,-0.121504 0.158867,-0.201662 0.225991,-0.310739 0.08339,-0.135509 0.135078,-0.305766 0.197743,-0.451983 0.03438,-0.08023 0.09284,-0.209886 0.141245,-0.28249 0.01477,-0.02216 0.04715,-0.03156 0.0565,-0.0565 0.04817,-0.128466 0.0068,-0.238646 0.02825,-0.367236 0.02288,-0.137283 0.03634,-0.262362 0.08475,-0.395486 0.01439,-0.03958 0.04493,-0.0725 0.0565,-0.112996 0.03088,-0.108067 -0.01565,-0.257682 0,-0.367236 0.0088,-0.06174 0.126058,-0.115199 0.169494,-0.169494 0.204256,-0.25532 -0.0801,0.04641 0.310739,-0.254241 0.05278,-0.0406 0.08869,-0.100366 0.141245,-0.141244 0.03324,-0.02585 0.07931,-0.03123 0.112995,-0.0565 0.04882,-0.03662 0.261897,-0.205399 0.310739,-0.254241 0.09656,-0.09656 -0.01728,-0.338157 0.02825,-0.451983 0.07628,-0.19071 0.140003,-0.111755 0.169494,-0.141245 0.01298,-0.01298 0.03424,-0.06249 0.0565,-0.08475"
       id="path300" />
    <path
       style="fill:none;stroke:#000000;stroke-width:1px;stroke-linecap:butt;stroke-linejoin:miter;stroke-opacity:1"
       d="M 94.464523,64.859612 C 94.34323,64.74283 94.236119,64.61318 94.097286,64.520625 c -0.04903,-0.03269 -0.3146,-0.250379 -0.395485,-0.169494 -0.109483,0.109482 -0.104758,0.23423 0,0.338988 0.02825,0.02825 0.04685,0.07211 0.08475,0.08475 0.0776,0.02587 0.201181,0 0.28249,0"
       id="path302" />
    <path
       style="fill:none;stroke:#000000;stroke-width:1px;stroke-linecap:butt;stroke-linejoin:miter;stroke-opacity:1"
       d="m 94.52102,57.175895 c 0.242392,-0.178347 0.462818,-0.391904 0.621478,-0.649726 0.0958,-0.155683 0.152413,-0.327492 0.25424,-0.480232 0.05828,-0.08742 0.149411,-0.157576 0.197743,-0.254241 0.03333,-0.06667 0.02316,-0.131075 0.0565,-0.197743 0.02893,-0.05786 0.133654,-0.181192 0.169494,-0.225991 0.138327,-0.17291 0.335787,-0.317666 0.508481,-0.451984 0.0268,-0.02084 0.06438,-0.02934 0.08475,-0.0565 0.02825,-0.03766 -0.01489,-0.09658 0,-0.141244 0.02475,-0.07424 0.10613,-0.155763 0.141245,-0.225992 0.02525,-0.0505 0.0072,-0.145215 0.02825,-0.197743 0.01261,-0.03152 0.04389,-0.05322 0.0565,-0.08475 0.007,-0.01748 -0.0084,-0.03965 0,-0.0565 0.07654,-0.153074 0.242247,-0.260048 0.338988,-0.395485 0.08644,-0.121023 0.0389,-0.314432 0.08475,-0.451983 0.03269,-0.09808 0.08517,-0.226632 0.141245,-0.310739 0.0052,-0.0078 0.0234,0.0081 0.02825,0 0.0638,-0.106335 0.06142,-0.179333 0.112995,-0.282489 0.01529,-0.03059 0.190608,-0.243539 0.197743,-0.254241 0.301068,-0.451602 0.0083,-0.01151 0.141245,-0.310739 0.08948,-0.201336 0.234112,-0.388891 0.310739,-0.593228 0.05827,-0.155385 0.09341,-0.328061 0.169493,-0.480232 0.107146,-0.214292 0.05963,-0.06381 0.141245,-0.254241 0.01569,-0.03662 0.02852,-0.106271 0.0565,-0.141245 0.12975,-0.162188 0.382844,-0.501773 0.423734,-0.706224 0.01994,-0.09968 -0.0144,-0.209909 0,-0.310738 0.0134,-0.09383 0.05984,-0.167061 0.08475,-0.254241 0.03749,-0.131224 0.05869,-0.265198 0.08475,-0.395485 0.02171,-0.108565 0.118701,-0.260084 0.141245,-0.338988 0.01035,-0.03622 -0.01035,-0.07678 0,-0.112996 0.0093,-0.03264 0.04576,-0.05254 0.0565,-0.08475 0.03037,-0.0911 0.0289,-0.190512 0.0565,-0.28249 0.04044,-0.134787 0.118137,-0.256837 0.141245,-0.395486 0.03717,-0.223034 0.02815,-0.395073 0.08475,-0.621477 0.05733,-0.229311 0.253867,-0.394831 0.367237,-0.593228 0.08728,-0.152746 0.148695,-0.308567 0.197745,-0.480232 0.0295,-0.10314 0.0697,-0.290506 0.0847,-0.395486 0.009,-0.06525 -0.0108,-0.132725 0,-0.197742 0.0145,-0.08703 0.0674,-0.167677 0.0847,-0.254241 0.0539,-0.269394 0.0687,-0.553131 0.14125,-0.81922 0.0865,-0.317116 0.17152,-0.633624 0.22599,-0.960464 0.0375,-0.224736 -0.0552,-0.485497 0,-0.706224 0.038,-0.151923 0.0657,-0.06435 0.0847,-0.197743 0.0216,-0.151433 0.0498,-0.227563 0.0847,-0.367237 0.0278,-0.111114 0,-0.251362 0,-0.367236"
       id="path304" />
    <path
       style="fill:none;stroke:#000000;stroke-width:1px;stroke-linecap:butt;stroke-linejoin:miter;stroke-opacity:1"
       d="m 108.08052,44.633357 c 0.0396,0.202031 -0.0283,0.400387 -0.0283,0.593228"
       id="path306" />
    <path
       style="fill:none;stroke:#000000;stroke-width:1px;stroke-linecap:butt;stroke-linejoin:miter;stroke-opacity:1"
       d="m 94.464523,57.825621 c -0.0094,-0.04708 -0.02483,-0.09335 -0.02825,-0.141245 -0.0027,-0.03775 -0.04098,-0.680757 0,-0.762721 0.03491,-0.06981 0.02825,0.0097 0.02825,-0.0565"
       id="path308" />
    <path
       style="fill:none;stroke:#000000;stroke-width:1px;stroke-linecap:butt;stroke-linejoin:miter;stroke-opacity:1"
       d="m 100.3968,35.367698 c -0.049,0.50411 -0.0282,1.017604 -0.0282,1.525444 0,0.167517 -0.0429,0.394527 0.0282,0.53673 0.0277,0.05541 0,0.163687 0,0.225992 0,0.188805 0.008,0.350554 0.0282,0.53673 0.0319,0.286945 -0.0408,0.589928 0,0.875718 0.01,0.06786 0.048,0.12972 0.0565,0.197743 0.0207,0.165727 -0.0173,0.155369 0,0.310738 0.0108,0.09698 0.0565,0.141136 0.0847,0.225992 0.0569,0.170816 0.0565,0.66698 0.0565,0.847469 0,0.122217 0.004,1.057498 -0.0847,1.101709 -0.0358,0.0179 -0.12859,0 -0.16949,0"
       id="path310" />
    <path
       id="path962"
       style="fill:#ed7e7e;fill-opacity:1;stroke:#ffffff;stroke-width:0.019975;stroke-opacity:1"
       d="M 64.902344 56.345703 C 64.892438 56.345703 57.964601 72.240112 57.900391 72.410156 C 57.893169 72.429386 57.892791 72.445312 57.900391 72.445312 C 57.915924 72.445312 69.639034 67.036748 69.652344 67.023438 C 69.663859 67.011921 64.918984 56.345703 64.902344 56.345703 z " />
    <path
       id="path965"
       style="fill:#f2e96b;fill-opacity:1;stroke:#f2e96b;stroke-width:0.167785;stroke-opacity:1"
       d="m 72.36942,72.735319 c -0.288903,0 -14.744449,6.829668 -14.65562,6.924202 0.04784,0.05091 4.333599,1.016707 9.52422,2.145469 5.19062,1.128762 9.601478,2.060436 9.802966,2.07106 0.347575,0.01833 0.324182,-0.07793 -0.467969,-1.882969 -0.459209,-1.046375 -1.557271,-3.557708 -2.439551,-5.5807 -0.88228,-2.022993 -1.676604,-3.677062 -1.764046,-3.677062 z" />
    <path
       id="path975"
       style="fill:#78f26b;fill-opacity:1;stroke:#78f26b;stroke-width:0.238175;stroke-opacity:1"
       d="m 51.896543,85.903615 c -0.06905,0.09473 -5.970688,13.839743 -6.176503,14.385245 -0.189888,0.5033 -1.940092,1.02646 16.105148,-4.827525 10.026789,-3.252752 13.800814,-4.569974 13.375949,-4.672203 -2.188995,-0.526714 -23.261719,-4.944345 -23.304594,-4.885517 z" />
    <path
       style="fill:none;stroke:#000000;stroke-width:0.776494px;stroke-linecap:butt;stroke-linejoin:miter;stroke-opacity:1"
       d="m 32.542802,110.63705 v 3.47462"
       id="path980" />
    <path
       style="fill:none;stroke:#000000;stroke-width:1px;stroke-linecap:butt;stroke-linejoin:miter;stroke-opacity:1"
       d="M 39.718038,113.6032 H 32.542802"
       id="path982" />
    <path
       id="path988"
       style="fill:#000000;fill-opacity:1;stroke:#000000;stroke-width:0.0900498;stroke-opacity:1"
       d="m 32.938283,110.82019 v 1.14799 1.14797 h 2.337153 c 1.286499,0 2.322946,-0.0174 2.302845,-0.0385 -0.0201,-0.0211 -1.0729,-0.53767 -2.339296,-1.14798 z" />
    <path
       style="fill:none;stroke:#000000;stroke-width:0.838774px;stroke-linecap:butt;stroke-linejoin:miter;stroke-opacity:1"
       d="m 97.471052,109.85128 v 4.05433"
       id="path980-7" />
    <path
       style="fill:none;stroke:#000000;stroke-width:1.00784px;stroke-linecap:butt;stroke-linejoin:miter;stroke-opacity:1"
       d="M 97.392788,113.41505 H 90.104556"
       id="path982-2" />
    <path
       style="fill:#000000;fill-opacity:1;stroke:#000000;stroke-width:0.157547;stroke-opacity:1"
       d="m 90.579606,112.84103 c 0.0859,-0.12861 6.461379,-4.15425 6.579169,-4.15425 0.05528,0 0.100507,0.95431 0.100507,2.12066 v 2.12066 H 93.89036 c -1.852906,0 -3.342746,-0.0393 -3.31076,-0.0871 z"
       id="path1021" />
  </g>
</svg>
